<svg xmlns="http://www.w3.org/2000/svg" width="146" height="26" viewBox="0 0 146 26"><g><g><path d="M34.426 12.986H30.49V5.89h4.024a6.564 6.564 0 0 1 3.56.732 3.071 3.071 0 0 1 1.04 2.638 3.287 3.287 0 0 1-1.04 2.794c-.638.598-1.854.909-3.645.909zm5.565 3.643c3.009-1.108 4.516-3.586 4.516-7.395 0-2.79-.753-4.805-2.347-6.066-1.594-1.196-4.206-1.838-7.97-1.838h-9.1v23.823h5.358v-8.015h3.476l.93 1.329 4.627 6.686h6.576l-6-8.502z"/></g><g><path d="M11.269 6.37c.642.312.93 1.044.93 2.108 0 1.065-.287 1.753-1.04 2.064a8.69 8.69 0 0 1-3.277.465H5.358v-5.19H7.88a7.418 7.418 0 0 1 3.387.532zm1.13 9.322a2.214 2.214 0 0 1 1.214 2.17 2.15 2.15 0 0 1-1.218 2.214 8.188 8.188 0 0 1-3.387.575h-3.65V15.16h3.1a10.413 10.413 0 0 1 3.94.532zm5.357-.931a5.898 5.898 0 0 0-3.476-2.015c.376-.199.664-.31.841-.42.088-.044.376-.265.841-.576 1.238-.885 1.794-2.258 1.794-4.162a6.207 6.207 0 0 0-1.594-4.118 5.8 5.8 0 0 0-2.635-1.594A15.138 15.138 0 0 0 9.3 1.3H0v23.823h10.426c3.301 0 5.645-.73 6.951-2.214a6.403 6.403 0 0 0 1.686-4.383 5.163 5.163 0 0 0-1.307-3.742z"/></g><g><path d="M137.537 15.744v9.409h-5.358v-9.41L123.81 1.33h5.823l5.18 8.878 5.158-8.878h5.822z"/></g><g><path d="M113.58 5.913v19.24h-5.357V5.913h-6.753V1.33h18.863v4.583z"/></g><g><path d="M87.543 5.448c-.74-.025-1.465.201-2.059.642a2.157 2.157 0 0 0-.753 1.683 1.843 1.843 0 0 0 .93 1.639 15.673 15.673 0 0 0 4.317 1.417 13.418 13.418 0 0 1 5.358 2.524 6.282 6.282 0 0 1 1.887 4.848 6.404 6.404 0 0 1-2.435 5.18 9.494 9.494 0 0 1-6.38 2.015 14.706 14.706 0 0 1-10.228-4.162l3.188-3.92c2.635 2.281 4.982 3.388 7.13 3.388a3.752 3.752 0 0 0 2.347-.642 1.984 1.984 0 0 0 .84-1.683 1.864 1.864 0 0 0-.93-1.683 10.26 10.26 0 0 0-3.475-1.262c-2.812-.686-4.872-1.527-6.11-2.59-1.306-1.063-1.97-2.746-1.97-4.96a6.41 6.41 0 0 1 2.435-5.291 9.99 9.99 0 0 1 6.11-1.793c1.626.004 3.241.272 4.782.793 1.54.51 2.972 1.298 4.228 2.325l-2.723 3.919a10.433 10.433 0 0 0-6.487-2.37z"/></g><g><path d="M55.174 25.123H49.44L59.78 1.3h5.157l10.406 23.823H69.63l-1.508-3.521-.022-1.395.022-7.107-3.077 1.395-2.656-6.11-2.634 6.087-3.077-1.373v8.504z"/></g><g><path d="M62.39 16.87l4.584-1.97v4.602l-4.583-1.97-4.561 1.97V14.9z"/></g></g></svg>