<svg xmlns="http://www.w3.org/2000/svg" width="464" height="384" viewBox="0 0 464 384"><g><g><path fill="none" stroke="#abdae1" stroke-miterlimit="20" stroke-width="2" d="M139.275 252.986c16.332 13.71 35.82 21.172 40.525 33.831 4.65 12.66-5.536 30.515-8.138 54.673-2.602 24.158 2.38 54.562-8.858 63.573-11.239 8.956-38.643-3.483-67.597-1.437-29.01 2.1-59.46 18.74-76.29 11.609C2.033 408.048-1.178 377.09 2.2 352.325c3.432-24.82 13.397-43.395 16.055-68.437 2.657-24.987-2.104-56.332 9.743-71.478 11.848-15.147 40.304-14.042 61.065-3.538 20.76 10.503 33.881 30.46 50.213 44.114z"/></g><g transform="rotate(-240 344.5 42.5)"><path fill="none" stroke="#abdae1" stroke-miterlimit="20" stroke-width="2" d="M425.436-23.08c26.856 22.531 58.902 34.797 66.64 55.603 7.648 20.805-9.103 50.152-13.382 89.855-4.279 39.704 3.915 89.674-14.566 104.483-18.482 14.719-63.546-5.723-111.16-2.362-47.705 3.453-97.777 30.8-125.453 19.08-27.767-11.811-33.048-62.69-27.494-103.393 5.644-40.794 22.032-71.321 26.401-112.479 4.37-41.066-3.46-92.58 16.023-117.475 19.483-24.894 66.278-23.077 100.417-5.815 34.14 17.263 55.717 50.061 82.574 72.502z"/></g></g></svg>