<svg xmlns="http://www.w3.org/2000/svg" width="145" height="42" viewBox="0 0 145 42"><g><g><path fill="#3970cf" d="M10.34 15.666a.04.04 0 0 1-.01.013c-.022.033-.047.07-.07.101-.146.201-.29.405-.43.613-.057.086-.112.173-.167.26-.105.163-.21.325-.31.493-.06.1-.118.204-.176.307a12.562 12.562 0 0 0-.787 1.618c-.062.163-.121.329-.174.493a6.737 6.737 0 0 0-.106.328c-.054.18-.094.36-.133.541-.02.095-.045.188-.063.284a6.436 6.436 0 0 0-.087.788c0 .009-.004.02-.004.032 0 .01.002.021 0 .035a5.065 5.065 0 0 0 .165 1.467c.003.014.01.025.012.039.042.145.088.29.143.428.01.029.027.058.039.088.051.122.102.243.165.363.017.033.04.065.058.098.062.113.125.225.196.334.027.04.059.076.085.116.07.1.14.2.22.297.04.051.088.1.131.148.073.085.144.168.223.248l3.195 3.268a3.43 3.43 0 0 0 2.444 1.019c.93 0 1.807-.37 2.464-1.042a3.563 3.563 0 0 0 1.02-2.514c0-.948-.362-1.842-1.02-2.514l-6.365-6.493a2.436 2.436 0 0 1-.658-1.256zm2.928-4.522l4.116-4.19c1.338-1.368 1.338-3.625-.02-5.014-1.318-1.345-3.615-1.345-4.93 0L1.895 12.693A3.566 3.566 0 0 0 .89 15.197c0 .951.363 1.844 1.02 2.516l5.167 5.276c-.008-.04-.01-.082-.017-.123a5.24 5.24 0 0 1-.067-.446c-.007-.076-.019-.151-.024-.23a5.673 5.673 0 0 1-.012-.621c0-.023-.003-.046-.001-.07.2-4.993 6.063-10.139 6.313-10.355zm4.676 11.629a4.437 4.437 0 0 1 1.309 3.163 4.46 4.46 0 0 1-1.275 3.143 4.278 4.278 0 0 1-3.08 1.303 4.288 4.288 0 0 1-3.07-1.291L1.275 18.317a4.436 4.436 0 0 1-1.254-3.12c0-1.188.453-2.304 1.276-3.144L11.793 1.35a4.276 4.276 0 0 1 6.185-.036c1.698 1.732 1.698 4.551 0 6.285l-6.363 6.496a1.564 1.564 0 0 0-.449 1.101c0 .415.16.808.449 1.102zm15.286-4.619c.008.041.01.082.017.12.029.148.048.299.067.449.007.076.018.15.022.228.017.205.02.411.014.622 0 .024.003.046 0 .07-.2 4.994-6.06 10.14-6.309 10.355l-4.114 4.192c-1.337 1.367-1.337 3.624.02 5.013 1.317 1.344 3.613 1.344 4.929 0l10.53-10.754a3.571 3.571 0 0 0 1.008-2.503c0-.95-.364-1.844-1.022-2.516zm-.801.424l-.011-.052a4.065 4.065 0 0 0-.095-.433c-.002-.012-.008-.026-.01-.04a5.376 5.376 0 0 0-.144-.428c-.01-.03-.027-.056-.04-.086a4.12 4.12 0 0 0-.165-.364c-.016-.032-.039-.064-.056-.096-.063-.113-.126-.226-.197-.336-.028-.04-.06-.076-.086-.116-.07-.1-.139-.2-.218-.297-.041-.05-.09-.099-.133-.148-.072-.083-.144-.168-.222-.249l-3.195-3.266a3.428 3.428 0 0 0-2.443-1.02c-.932 0-1.808.37-2.466 1.042a3.567 3.567 0 0 0-1.02 2.515c0 .95.362 1.842 1.02 2.512l6.367 6.494c.34.346.567.782.657 1.255l.009-.013.07-.1c.148-.2.292-.405.43-.613.058-.085.113-.172.168-.26.105-.162.21-.326.31-.493.06-.1.118-.203.176-.305a14.257 14.257 0 0 0 .425-.804 13.654 13.654 0 0 0 .36-.815c.065-.164.122-.329.177-.494a8.07 8.07 0 0 0 .106-.328c.052-.18.093-.36.131-.54.02-.094.047-.19.063-.284a6.22 6.22 0 0 0 .087-.788c.001-.01.005-.02.005-.032v-.035a5.159 5.159 0 0 0-.06-.983zm-7.015 22.555a4.28 4.28 0 0 1-3.08-1.304c-1.697-1.734-1.697-4.553 0-6.286l6.363-6.497c.29-.294.449-.685.449-1.1 0-.417-.16-.809-.45-1.103l-6.329-6.475a4.434 4.434 0 0 1-1.308-3.162c0-1.188.453-2.305 1.275-3.143a4.29 4.29 0 0 1 6.148-.012l10.556 10.775a4.437 4.437 0 0 1 1.254 3.12 4.464 4.464 0 0 1-1.276 3.144L28.52 39.792c-.846.877-1.94 1.34-3.105 1.34zm29.488-30.53v17.13h9.001v2.992H51.551V10.602zm24.1 0v2.96H69.12v14.17h9.882v2.992H65.769V10.602zm-1.409 8.56v2.96H70v-2.96zm2.957-8.56h3.351v20.122h-3.35zm16.346 20.122h-4.31l-7.805-9.745v-.633l7.805-9.745h4.028l-7.917 9.888zm3.841 0c-2.562 0-4.308-1.755-4.308-4.398v-1.783h3.351v1.61c0 1.005.591 1.58 1.548 1.58h5.128c.956 0 1.542-.575 1.542-1.58V23.71c0-.978-.586-1.581-1.542-1.581h-5.747c-2.534 0-4.28-1.752-4.28-4.398V15c0-2.645 1.746-4.398 4.28-4.398h6.333c2.56 0 4.308 1.753 4.308 4.398v1.782h-3.352v-1.61c0-1.005-.586-1.61-1.542-1.61h-5.128c-.957 0-1.548.605-1.548 1.61v2.386c0 1.005.591 1.61 1.548 1.61h5.745c2.53 0 4.277 1.754 4.277 4.398v2.76c0 2.644-1.748 4.4-4.277 4.4zm21.645 0h-3.341v-7.389l-7.208-12.734h3.99l4.955 9.284 1.604 3.45zm-.72-11.741l4.134-8.382h3.773l-6.302 11.83zm19.053.184c2.54 0 4.277 1.754 4.277 4.398v2.76c0 2.644-1.738 4.4-4.277 4.4h-6.334c-2.56 0-4.308-1.756-4.308-4.4v-1.782h3.352v1.61c0 1.005.586 1.58 1.552 1.58h5.12c.957 0 1.543-.575 1.543-1.58V23.71c0-.978-.586-1.581-1.542-1.581h-5.748c-2.529 0-4.277-1.752-4.277-4.398V15c0-2.645 1.748-4.398 4.277-4.398h6.334c2.57 0 4.308 1.753 4.308 4.398v1.783h-3.352v-1.61c0-1.006-.586-1.61-1.542-1.61h-5.12c-.967 0-1.553.604-1.553 1.61v2.385c0 1.005.586 1.61 1.552 1.61z"/></g></g></svg>