<?xml version="1.0" encoding="UTF-8"?>
<svg width="210px" height="96px" viewBox="0 0 210 96" version="1.1" xmlns="http://www.w3.org/2000/svg" xmlns:xlink="http://www.w3.org/1999/xlink">
    <!-- Generator: Sketch 63.1 (92452) - https://sketch.com -->
    <title>Logo/Company/1@1x</title>
    <desc>Created with Sketch.</desc>
    <g id="Logo/Company/1" stroke="none" stroke-width="1" fill="none" fill-rule="evenodd">
        <g id="logo_brasty" transform="translate(32.000000, 35.000000)" fill="#000000" fill-rule="nonzero">
            <path d="M40.0516087,16.6463804 L46.0518913,25.1485 L39.476337,25.1485 L34.8487717,18.4618587 L33.9188152,17.1335761 L30.442587,17.1335761 L30.442587,25.1477065 L25.0850217,25.1477065 L25.0850217,1.3251087 L34.1846304,1.3251087 C37.9488913,1.3251087 40.5610217,1.96703261 42.1551196,3.16280435 C43.7492174,4.42443478 44.5022283,6.43986957 44.5022283,9.22894565 C44.5022283,13.0376413 42.9946196,15.5164674 39.98575,16.624163 L40.0516087,16.6463804 Z M34.4282283,12.9487717 C36.2214891,12.9487717 37.4394783,12.6385217 38.0782283,12.0410326 C38.8517118,11.3313019 39.2384717,10.2940418 39.1184783,9.25116304 C39.2229493,8.25583067 38.8345489,7.27223856 38.0782283,6.61681522 C36.9823237,6.04334783 35.7470774,5.79008383 34.5139239,5.88602174 L30.4846413,5.88602174 L30.4846413,12.9709891 L34.4258478,12.9709891 L34.4282283,12.9487717 Z" id="Path_110"></path>
            <path d="M17.7564565,14.7864674 C18.6722931,15.8103949 19.1423201,17.1570823 19.0625217,18.5285109 C19.0760881,20.1502779 18.473763,21.716777 17.3771739,22.9116848 C16.0711087,24.3946957 13.7271739,25.1254891 10.4255109,25.1254891 L0,25.1254891 L0,1.3028913 L9.29877174,1.3028913 C10.7283465,1.29402333 12.1519702,1.48770455 13.5272174,1.87816304 C14.5329112,2.1624942 15.4430992,2.71326762 16.1615652,3.47226087 C17.1797486,4.6031777 17.7470403,6.06870485 17.755663,7.59041304 C17.755663,9.49476087 17.2002283,10.8674783 15.9624022,11.753 C15.4974239,12.06325 15.2093913,12.2846304 15.1213152,12.3282717 C14.9443696,12.4393587 14.656337,12.5496522 14.2802283,12.7488152 C15.6390466,12.9928176 16.8692138,13.7057586 17.7564565,14.7634565 L17.7564565,14.7864674 Z M12.3988913,15.6942065 C11.1315107,15.2654389 9.79337464,15.0849374 8.45768478,15.1625761 L5.35756522,15.1625761 L5.35756522,20.6534457 L9.00756522,20.6534457 C10.1646631,20.703417 11.3191981,20.5073435 12.3949239,20.0781739 C13.237382,19.6817482 13.7290091,18.7881719 13.612913,17.8643696 C13.6911105,16.9605677 13.2099888,16.1005235 12.3988913,15.6942065 L12.3988913,15.6942065 Z M11.2673913,6.351 C10.1951545,5.91214825 9.03515686,5.73009192 7.88003261,5.81936957 L5.35756522,5.81936957 L5.35756522,10.9999891 L7.88161957,10.9999891 C8.99365899,11.056 10.1061186,10.8981546 11.1586848,10.5350109 C11.9116957,10.2247609 12.1989348,9.53840217 12.1989348,8.47593478 C12.1989348,7.41346739 11.9109022,6.68267391 11.2689783,6.37242391 L11.2673913,6.351 Z" id="Path_111"></path>
            <polygon id="Path_112" points="137.535174 15.7386413 137.535174 25.1477065 132.176815 25.1477065 132.176815 15.7386413 123.808 1.3251087 129.630543 1.3251087 134.811163 10.203337 139.968772 1.3251087 145.791315 1.3251087"></polygon>
            <polygon id="Path_113" points="113.579272 5.90823913 113.579272 25.1477065 108.221707 25.1477065 108.221707 5.90823913 101.468413 5.90823913 101.468413 1.3251087 120.331772 1.3251087 120.331772 5.90823913"></polygon>
            <path d="M87.5404891,5.44326087 C86.8012332,5.41782589 86.0752469,5.64415455 85.481413,6.08518478 C84.9911786,6.50520127 84.7148743,7.12273706 84.7284022,7.76815217 C84.7147574,8.44346389 85.0715715,9.07215088 85.6583587,9.40668478 C87.0209809,10.0862857 88.4753679,10.5636861 89.9756739,10.823837 C91.9272348,11.2556435 93.7576723,12.1179986 95.3332391,13.3478913 C96.6335473,14.6151934 97.3219139,16.3831296 97.2209239,18.1960435 C97.269107,20.2097918 96.3670351,22.1288622 94.7857391,23.376663 C92.974106,24.8000321 90.7067016,25.5160694 88.4061739,25.3913043 C84.5852994,25.3853102 80.916772,23.8924008 78.1774457,21.2287174 L81.3656413,17.3097283 C83.9999891,19.5901848 86.3470978,20.697087 88.4950435,20.697087 C89.3270037,20.7498293 90.152833,20.5239686 90.8421522,20.055163 C91.3876385,19.6712647 91.7036638,19.0389161 91.6832391,18.3721957 C91.7088727,17.6822691 91.3510394,17.0346883 90.7532826,16.6892283 C89.680523,16.0615985 88.5026498,15.634112 87.2770543,15.4275978 C84.4649674,14.7412391 82.4058913,13.9001522 81.1672717,12.8368913 C79.8612065,11.7744239 79.1970652,10.0914565 79.1970652,7.87765217 C79.1141056,5.8254717 80.0195956,3.85782334 81.63225,2.58594565 C83.418697,1.33770728 85.5643478,0.707944863 87.7420326,0.792684783 C89.3685403,0.79694833 90.9835959,1.06491839 92.5243261,1.58616304 C94.0638466,2.09665584 95.4969378,2.88460055 96.7527717,3.91105435 L94.0295543,7.83004348 C92.1987547,6.32666536 89.9108418,5.49108465 87.5420761,5.46071739 L87.5404891,5.44326087 Z" id="Path_114"></path>
            <polygon id="Path_115" points="55.1737174 25.1254891 49.43925 25.1254891 59.7790652 1.3028913 64.9366739 1.3028913 75.3423478 25.1254891 69.6293043 25.1254891 68.1216957 21.6048261 68.0994783 20.2098913 68.1216957 13.1027065 65.044587 14.4976413 62.3880217 8.3878587 59.7544674 14.4746304 56.6773587 13.101913 56.6773587 21.6056196"></polygon>
            <polygon id="Path_116" points="62.3911957 16.8669674 66.9743261 14.8967609 66.9743261 19.4989348 62.3911957 17.5287283 57.8302826 19.4989348 57.8302826 14.8967609"></polygon>
        </g>
    </g>
</svg>