<?xml version="1.0" encoding="UTF-8"?>
<svg width="210px" height="96px" viewBox="0 0 210 96" version="1.1" xmlns="http://www.w3.org/2000/svg" xmlns:xlink="http://www.w3.org/1999/xlink">
    <!-- Generator: Sketch 63.1 (92452) - https://sketch.com -->
    <title>Logo/Company/2@1x</title>
    <desc>Created with Sketch.</desc>
    <g id="Logo/Company/2" stroke="none" stroke-width="1" fill="none" fill-rule="evenodd">
        <g id="logo-leksys-blue" transform="translate(32.000000, 27.000000)" fill="#3970CF">
            <path d="M135.975352,19.1599296 L141.712535,19.1599296 C144.252113,19.1599296 145.989718,20.9129577 145.989718,23.5553521 L145.989718,26.3149577 C145.989718,28.9573521 144.252113,30.7114085 141.712535,30.7114085 L135.379014,30.7114085 C132.818873,30.7114085 131.070986,28.9573521 131.070986,26.3149577 L131.070986,24.5331408 L134.422817,24.5331408 L134.422817,26.1422254 C134.422817,27.1467465 135.008873,27.721493 135.975352,27.721493 L141.095634,27.721493 C142.051831,27.721493 142.637887,27.1467465 142.637887,26.1422254 L142.637887,23.6992958 C142.637887,22.7225352 142.051831,22.119 141.095634,22.119 L135.348169,22.119 C132.818873,22.119 131.070986,20.3680282 131.070986,17.7235775 L131.070986,14.9937887 C131.070986,12.3503662 132.818873,10.5983662 135.348169,10.5983662 L141.68169,10.5983662 C144.252113,10.5983662 145.989718,12.3503662 145.989718,14.9937887 L145.989718,16.7756056 L142.637887,16.7756056 L142.637887,15.1665211 C142.637887,14.1609718 142.051831,13.5574366 141.095634,13.5574366 L135.975352,13.5574366 C135.008873,13.5574366 134.422817,14.1609718 134.422817,15.1665211 L134.422817,17.5508451 C134.422817,18.5553662 135.008873,19.1599296 135.975352,19.1599296 L135.975352,19.1599296 Z M122.660563,18.98 L126.793803,10.5983662 L130.567183,10.5983662 L124.264507,22.4274507 L122.660563,18.98 Z M123.380282,30.7114085 L120.038732,30.7114085 L120.038732,23.3260704 L112.831268,10.5983662 L116.820563,10.5983662 L121.776338,19.8775915 L123.380282,23.3260704 L123.380282,30.7114085 Z M108.070845,30.7114085 L101.735268,30.7114085 C99.1730704,30.7114085 97.4272394,28.9573521 97.4272394,26.3149577 L97.4272394,24.5331408 L100.778042,24.5331408 L100.778042,26.1422254 C100.778042,27.1467465 101.369239,27.721493 102.325437,27.721493 L107.453944,27.721493 C108.410141,27.721493 108.996197,27.1467465 108.996197,26.1422254 L108.996197,23.6992958 C108.996197,22.7225352 108.410141,22.119 107.453944,22.119 L101.706479,22.119 C99.1730704,22.119 97.4272394,20.3680282 97.4272394,17.7235775 L97.4272394,14.9937887 C97.4272394,12.3503662 99.1730704,10.5983662 101.706479,10.5983662 L108.04,10.5983662 C110.600141,10.5983662 112.348028,12.3503662 112.348028,14.9937887 L112.348028,16.7756056 L108.996197,16.7756056 L108.996197,15.1665211 C108.996197,14.1609718 108.410141,13.5574366 107.453944,13.5574366 L102.325437,13.5574366 C101.369239,13.5574366 100.778042,14.1609718 100.778042,15.1665211 L100.778042,17.5508451 C100.778042,18.5553662 101.369239,19.1599296 102.325437,19.1599296 L108.070845,19.1599296 C110.600141,19.1599296 112.348028,20.9129577 112.348028,23.5553521 L112.348028,26.3149577 C112.348028,28.9573521 110.600141,30.7114085 108.070845,30.7114085 L108.070845,30.7114085 Z M97.8837465,30.7114085 L93.5777746,30.7114085 L85.7791127,20.9705352 L85.7791127,20.3382113 L93.5777746,10.5983662 L97.6020282,10.5983662 L89.6912958,20.4811268 L97.8837465,30.7114085 Z M81.5481972,10.5983662 L84.899,10.5983662 L84.899,20.3382113 L84.899,20.9705352 L84.899,30.7114085 L81.5481972,30.7114085 L81.5481972,10.5983662 Z M78.5911831,19.1599296 L78.5911831,22.119 L70.9981549,22.119 L70.9981549,19.1599296 L78.5911831,19.1599296 Z M66.7672394,10.5983662 L79.9997746,10.5983662 L79.9997746,13.5574366 L70.1180423,13.5574366 L70.1180423,19.1599296 L70.1180423,22.119 L70.1180423,27.721493 L79.9997746,27.721493 L79.9997746,30.7114085 L66.7672394,30.7114085 L66.7672394,10.5983662 L66.7672394,10.5983662 Z M52.5486901,10.5983662 L55.899493,10.5983662 L55.899493,27.721493 L64.9011127,27.721493 L64.9011127,30.7114085 L52.5486901,30.7114085 L52.5486901,10.5983662 L52.5486901,10.5983662 Z M29.5166761,39.7880845 C28.670493,40.6651127 27.5765211,41.1288169 26.4116056,41.1288169 C25.2477183,41.1288169 24.1537465,40.6651127 23.3322394,39.8250986 C21.6347324,38.0916056 21.6347324,35.2723662 23.3322394,33.5388732 L29.6945493,27.0418732 C29.984493,26.7478169 30.1438592,26.3571127 30.1438592,25.9417324 C30.1438592,25.5253239 29.984493,25.1335915 29.6945493,24.8395352 L23.3651408,18.3641268 C22.5097042,17.5045775 22.0573099,16.3890141 22.0573099,15.202507 C22.0573099,14.0139437 22.5097042,12.8973521 23.3322394,12.0593944 C24.1537465,11.2193803 25.2477183,10.7567042 26.4116056,10.7567042 C27.5703521,10.7567042 28.6591831,11.2162958 29.4806901,12.0470563 L40.0358732,22.8222676 C40.8368169,23.6376056 41.2902394,24.7541972 41.2902394,25.9417324 C41.2902394,27.1302958 40.8368169,28.2458592 40.0142817,29.0858732 L29.5166761,39.7880845 L29.5166761,39.7880845 Z M33.4864366,19.5629718 C33.4967183,19.2257324 33.4782113,18.8956901 33.4268028,18.5790141 C33.4237183,18.560507 33.4196056,18.5440563 33.415493,18.5276056 C33.3908169,18.3805775 33.361,18.2356056 33.3209014,18.0937183 C33.3188451,18.0813803 33.3126761,18.0680141 33.3106197,18.0546479 C33.2674366,17.9107042 33.2221972,17.7667606 33.1666761,17.6259014 C33.1563944,17.5960845 33.1399437,17.5693521 33.1276056,17.5395352 C33.0772254,17.4161549 33.0247887,17.294831 32.9620704,17.1755634 C32.9456197,17.142662 32.923,17.1107887 32.9055211,17.0789155 C32.8428028,16.9658169 32.7800845,16.8527183 32.7091408,16.7427042 C32.6813803,16.7036338 32.649507,16.6666197 32.6227746,16.6265211 C32.5528592,16.5267887 32.4839718,16.4270563 32.4048028,16.3293803 C32.3636761,16.279 32.3153521,16.2306761 32.272169,16.1813239 C32.2001972,16.0980423 32.1282254,16.0137324 32.0500845,15.932507 L28.8545352,12.6639577 C28.1985634,12.0059296 27.3328451,11.6429859 26.4116056,11.6429859 C25.4800845,11.6429859 24.6040845,12.0131268 23.9460563,12.6855493 C23.2880282,13.3569437 22.9261127,14.2504225 22.9261127,15.202507 C22.9261127,16.1525352 23.2880282,17.0460141 23.9460563,17.7163803 L30.3124789,24.2154366 C30.6528028,24.5619296 30.8800282,24.9978732 30.9694789,25.470831 C30.9725634,25.4677465 30.9746197,25.4636338 30.9787324,25.458493 C31.0023803,25.4266197 31.0270563,25.3906338 31.0496761,25.3577324 C31.1967042,25.1572394 31.3406479,24.9526338 31.4794507,24.7449437 C31.5370282,24.6596056 31.5915211,24.5722113 31.6470423,24.4848169 C31.7519155,24.3223662 31.8578169,24.1578592 31.9575493,23.9912958 C32.0171831,23.8905352 32.0747606,23.7877183 32.1333662,23.6859296 C32.2228169,23.5286197 32.3102113,23.3692535 32.393493,23.2088592 C32.4510704,23.1009014 32.5055634,22.9908873 32.558,22.8808732 C32.6361408,22.7225352 32.7081127,22.5621408 32.777,22.4017465 C32.8253239,22.2907042 32.8736479,22.1776056 32.9188873,22.0655352 C32.9826338,21.9020563 33.0402113,21.7365211 33.0947042,21.5709859 C33.1317183,21.462 33.1687324,21.3519859 33.2006056,21.243 C33.2530423,21.0630704 33.294169,20.8831408 33.3322113,20.7021831 C33.3527746,20.6086197 33.3784789,20.513 33.3949296,20.4184085 C33.440169,20.1562254 33.4710141,19.8919859 33.4823239,19.6298028 C33.4833521,19.6205493 33.4864366,19.6092394 33.4864366,19.5979296 C33.4864366,19.5866197 33.4854085,19.5742817 33.4864366,19.5629718 L33.4864366,19.5629718 Z M39.3994366,23.4258028 L34.2339155,18.1502676 C34.2421408,18.1913944 34.2441972,18.2325211 34.2513944,18.2705634 C34.2801831,18.4186197 34.2997183,18.5687324 34.3182254,18.7188451 C34.3254225,18.7949296 34.3367324,18.8699859 34.3408451,18.9470986 C34.3572958,19.1517042 34.3603803,19.3583662 34.3542113,19.5691408 C34.3542113,19.5927887 34.3572958,19.6154085 34.3552394,19.6390563 C34.1547465,24.6328732 28.2910986,29.7788592 28.0422817,29.9937465 L23.925493,34.1866197 C22.5878451,35.5530563 22.5878451,37.8098873 23.9460563,39.1989437 C25.2631408,40.5427606 27.5600704,40.5427606 28.8771549,39.1989437 L39.413831,28.4453239 C40.0574648,27.7872958 40.4214366,26.8917606 40.4214366,25.9417324 C40.4214366,24.9917042 40.0574648,24.0982254 39.3994366,23.4258028 L39.3994366,23.4258028 Z M18.9419577,22.7688028 C19.7984225,23.6293803 20.2508169,24.7459718 20.2508169,25.9324789 C20.2508169,27.1210423 19.7984225,28.2355775 18.9758873,29.0755915 C18.1533521,29.9166338 17.0593803,30.3782817 15.8965211,30.3782817 C14.7377746,30.3782817 13.6479155,29.9186901 12.8264085,29.0869014 L2.27225352,18.3127183 C1.47130986,17.4984085 1.01788732,16.3807887 1.01788732,15.1932535 C1.01788732,14.0046901 1.47130986,12.8891268 2.29384507,12.0491127 L12.7904225,1.34690141 C13.6366056,0.46884507 14.7305775,0.00616901408 15.8965211,0.00616901408 C17.0593803,0.00616901408 18.1533521,0.46884507 18.9758873,1.31091549 C20.6733944,3.04338028 20.6733944,5.86261972 18.9758873,7.59611268 L12.6125493,14.0920845 C12.3236338,14.387169 12.1642676,14.7778732 12.1642676,15.1932535 C12.1642676,15.6086338 12.3236338,16.0013944 12.6125493,16.2954507 L18.9419577,22.7688028 Z M14.2658451,11.1402113 L18.3816056,6.94939437 C19.7202817,5.58192958 19.7202817,3.32509859 18.3610423,1.93604225 C17.0439577,0.591197183 14.7470282,0.591197183 13.4309718,1.93604225 L2.89429577,12.689662 C2.2496338,13.3487183 1.88669014,14.2421972 1.88669014,15.1932535 C1.88669014,16.1443099 2.2496338,17.0367606 2.90766197,17.7091831 L8.07421127,22.9847183 C8.06598592,22.9446197 8.06392958,22.903493 8.05673239,22.8623662 C8.02691549,22.7163662 8.00738028,22.5672817 7.98990141,22.4161408 C7.98270423,22.3400563 7.97139437,22.265 7.96625352,22.1868592 C7.95083099,21.9822535 7.94671831,21.7766197 7.95391549,21.5648169 C7.95391549,21.5421972 7.95083099,21.5195775 7.95288732,21.4959296 C8.15235211,16.5021127 14.016,11.3561268 14.2658451,11.1402113 Z M11.9956479,16.9195493 C11.6542958,16.5720282 11.4280986,16.1371127 11.3376197,15.6620986 C11.3355634,15.6672394 11.3324789,15.6713521 11.3283662,15.6754648 C11.3057465,15.7083662 11.2810704,15.7443521 11.2584507,15.7762254 C11.1114225,15.9777465 10.9674789,16.1813239 10.8276479,16.3900423 C10.7710986,16.4753803 10.7155775,16.5627746 10.6610845,16.650169 C10.5562113,16.8126197 10.4503099,16.9750704 10.3505775,17.1436901 C10.2909437,17.2434225 10.2333662,17.3472676 10.1747606,17.4500845 C10.0842817,17.6063662 9.99688732,17.7657324 9.91360563,17.9250986 C9.85602817,18.0340845 9.80153521,18.1430704 9.74909859,18.2541127 C9.67095775,18.4114225 9.60001408,18.5728451 9.53009859,18.7332394 C9.48177465,18.8442817 9.4334507,18.9573803 9.38821127,19.0694507 C9.32549296,19.2329296 9.26688732,19.3984648 9.21342254,19.5629718 C9.17538028,19.6719577 9.13939437,19.7819718 9.10752113,19.8909577 C9.05405634,20.0719155 9.01395775,20.2518451 8.97488732,20.4328028 C8.95535211,20.5273944 8.92964789,20.6209577 8.91216901,20.7165775 C8.86795775,20.9797887 8.83608451,21.243 8.82477465,21.5051831 C8.82477465,21.5144366 8.82066197,21.5257465 8.82066197,21.5370563 C8.82066197,21.547338 8.82271831,21.5586479 8.82066197,21.5720141 C8.81038028,21.9092535 8.82888732,22.2382676 8.88132394,22.5549437 C8.88338028,22.5734507 8.88749296,22.5899014 8.8926338,22.6084085 C8.91730986,22.7533803 8.94609859,22.8993803 8.98619718,23.0402394 C8.98928169,23.0546338 8.9954507,23.0659437 8.99750704,23.0793099 C9.03966197,23.2242817 9.08592958,23.3692535 9.14042254,23.5080563 C9.15070423,23.5368451 9.1681831,23.5656338 9.17949296,23.5954507 C9.23090141,23.7178028 9.28230986,23.8391268 9.34502817,23.9594225 C9.36147887,23.9923239 9.38409859,24.0241972 9.40260563,24.0570986 C9.46532394,24.1701972 9.52804225,24.2822676 9.59898592,24.3912535 C9.62571831,24.4313521 9.65759155,24.467338 9.68432394,24.5074366 C9.75423944,24.6081972 9.82415493,24.7079296 9.90332394,24.8045775 C9.94342254,24.8559859 9.99174648,24.9043099 10.0349296,24.9526338 C10.1079296,25.0379718 10.1788732,25.1212535 10.2580423,25.2014507 L13.4525634,28.4710282 C14.1085352,29.1290563 14.9752817,29.4909718 15.8965211,29.4909718 C16.8270141,29.4909718 17.7040423,29.120831 18.3610423,28.4484085 C19.0190704,27.7780423 19.3809859,26.8845634 19.3809859,25.9324789 C19.3809859,24.9834789 19.0190704,24.0889718 18.3610423,23.4165493 L11.9956479,16.9195493 L11.9956479,16.9195493 Z" id="Shape"></path>
        </g>
    </g>
</svg>