<?xml version="1.0" encoding="UTF-8"?>
<svg width="48px" height="48px" viewBox="0 0 48 48" version="1.1" xmlns="http://www.w3.org/2000/svg" xmlns:xlink="http://www.w3.org/1999/xlink">
    <!-- Generator: Sketch 63.1 (92452) - https://sketch.com -->
    <title>Logo/Technology/Laravel@1x</title>
    <desc>Created with Sketch.</desc>
    <g id="Logo/Technology/Laravel" stroke="none" stroke-width="1" fill="none" fill-rule="evenodd">
        <g id="laravel" transform="translate(1.000000, 0.000000)" fill="#FF2D20" fill-rule="nonzero">
            <path d="M46.9717754,10.8601606 C46.9899198,10.9241586 47,10.9901566 47,11.0581544 L47,21.3578326 C47,21.6278241 46.8528289,21.8778163 46.618968,22.0098122 L37.903616,26.9896566 L37.903616,36.8573482 C37.903616,37.1273398 37.7584609,37.3733321 37.5246,37.5093278 L19.3257839,47.8990032 C19.283447,47.9230024 19.2390941,47.9390019 19.1927251,47.9530015 C19.1765967,47.9570013 19.1604684,47.969001 19.1443401,47.9730008 C19.0173294,48.0089997 18.8822545,48.0089997 18.7572599,47.9730008 C18.7350834,47.969001 18.716939,47.9570013 18.6987947,47.9490016 C18.6564578,47.9330021 18.6121048,47.9210025 18.571784,47.8990032 L0.381032042,37.5093278 C0.145155064,37.3733321 0,37.1273398 0,36.8573482 L0,5.94831412 C0,5.88231618 0.0100802128,5.81631824 0.0282245957,5.75232024 C0.0342727234,5.72832099 0.0483850212,5.71032155 0.0564491914,5.68832224 C0.0685454467,5.64832349 0.0846737872,5.60832474 0.10281817,5.57232586 C0.11088234,5.54632668 0.133058808,5.52832724 0.149187149,5.50632793 C0.173379659,5.47432893 0.191524042,5.44432986 0.215716553,5.41633074 C0.239909064,5.39633136 0.266117617,5.38033186 0.290310127,5.36233243 C0.318534723,5.33833318 0.344743276,5.31433393 0.372967872,5.29433455 L0.374983915,5.29433455 L9.47338395,0.100496859 C9.70522884,-0.0334989532 9.99553897,-0.0334989532 10.2293999,0.100496859 L19.3257839,5.29433455 L19.329816,5.29433455 C19.3600566,5.31433393 19.3842491,5.33633324 19.4124737,5.36033249 C19.4366662,5.37833193 19.4628748,5.39633136 19.4870673,5.4143308 C19.5132759,5.44232993 19.5294042,5.47232899 19.5535967,5.50432799 C19.569725,5.5263273 19.5939176,5.54632668 19.6039978,5.57032593 C19.6261742,5.60832474 19.6382705,5.64632355 19.6523828,5.6863223 C19.6584309,5.70832161 19.6745593,5.72832099 19.6785913,5.7503203 C19.6987518,5.81231837 19.7068159,5.8783163 19.7068159,5.94631418 L19.7068159,25.2497109 L27.2871359,20.9218462 L27.2871359,11.0541546 C27.2871359,10.9881566 27.2972161,10.9221587 27.3153605,10.8581607 C27.3214087,10.8361614 27.3335049,10.816162 27.3415691,10.7941627 C27.3556814,10.7541639 27.3697937,10.7161651 27.3899541,10.6761664 C27.4040664,10.6521671 27.4262429,10.6341677 27.4403552,10.6101684 C27.4645477,10.5801694 27.4826921,10.5501703 27.5068846,10.5241711 C27.5310771,10.5001719 27.5572856,10.4841724 27.5814781,10.4681729 C27.6097027,10.4461736 27.6338953,10.4221743 27.6641359,10.4041749 L27.6661519,10.4041749 L36.764552,5.20833724 C36.9984129,5.07434143 37.286707,5.07434143 37.5205679,5.20833724 L46.618968,10.4041749 C46.6512246,10.4241742 46.6734011,10.4461736 46.7036417,10.4661729 C46.7278343,10.4861723 46.7540428,10.5021718 46.7762193,10.5221712 C46.8024278,10.5501703 46.8205722,10.5801694 46.8447647,10.6101684 C46.8608931,10.6341677 46.8830695,10.6521671 46.8931497,10.6761664 C46.9153262,10.7161651 46.9294385,10.7541639 46.9415348,10.7941627 C46.953631,10.816162 46.9657273,10.8381613 46.9717754,10.8601606 Z M45.4799039,20.9238461 L45.4799039,12.3581138 L42.2985888,14.1740571 L37.8995839,16.6859786 L37.8995839,25.2517109 L45.4799039,20.9238461 L45.4799039,20.9238461 Z M36.385536,36.4233618 L36.385536,27.8496297 L32.0591087,30.2995531 L19.7068159,37.2953345 L19.7068159,45.9470642 L36.385536,36.4233618 Z M1.51203191,7.24827349 L1.51203191,36.4233618 L18.1907519,45.9470642 L18.1907519,37.2953345 L9.47741603,32.4054873 L9.47338395,32.3994875 L9.46935186,32.3994875 C9.44112727,32.3794881 9.4189508,32.3574888 9.38871016,32.3374895 C9.36653369,32.3174901 9.34032514,32.3014906 9.31814867,32.2834911 L9.31613263,32.2794913 C9.28992408,32.255492 9.27379574,32.2294928 9.25363531,32.2014937 C9.23347489,32.1774945 9.21129842,32.1554951 9.19718612,32.127496 L9.19315403,32.127496 C9.17702569,32.0994969 9.16694548,32.065498 9.15283318,32.033499 C9.14073693,32.0015 9.12460859,31.9795006 9.11654442,31.9475016 C9.10848025,31.9115028 9.10444816,31.873504 9.10041608,31.8335052 C9.09638399,31.8055061 9.08831982,31.7795069 9.08831982,31.7515078 L9.08831982,11.5781382 L4.69334706,9.06421674 L1.51203191,7.24827349 Z M9.85038391,1.62044936 L2.27006391,5.94831412 L9.85038391,10.2761789 L17.4266718,5.94831412 L9.85038391,1.62044936 Z M13.7937631,28.6296053 L18.192768,26.1176838 L18.192768,7.24827349 L15.0074208,9.06621668 L10.6084159,11.5781382 L10.6084159,30.4475485 L13.7937631,28.6296053 L13.7937631,28.6296053 Z M37.143568,6.72828974 L29.563248,11.0561545 L37.143568,15.3820193 L44.7218719,11.0541546 L37.143568,6.72828974 L37.143568,6.72828974 Z M36.385536,16.6859786 L31.9865311,14.1740571 L28.8031999,12.3581138 L28.8031999,20.9238461 L33.2022048,23.4357676 L36.385536,25.2517109 L36.385536,16.6859786 Z M18.9467679,35.9933752 L30.0632265,29.697572 L35.6194398,26.5536702 L28.0451679,22.2278054 L19.3277999,27.2056498 L11.3825762,31.745508 L18.9467679,35.9933752 Z" id="Shape"></path>
        </g>
    </g>
</svg>