<?xml version="1.0" encoding="UTF-8"?>
<svg width="48px" height="48px" viewBox="0 0 48 48" version="1.1" xmlns="http://www.w3.org/2000/svg" xmlns:xlink="http://www.w3.org/1999/xlink">
    <!-- Generator: Sketch 63.1 (92452) - https://sketch.com -->
    <title>Logo/Technology/MySQL@1x</title>
    <desc>Created with Sketch.</desc>
    <g id="Logo/Technology/MySQL" stroke="none" stroke-width="1" fill="none" fill-rule="evenodd">
        <g id="mysql" transform="translate(1.000000, 8.000000)" fill="#4479A1" fill-rule="nonzero">
            <path d="M31.4429167,3.23973946 C31.2225,3.23973946 31.073,3.2672293 30.91775,3.30453694 L30.91775,3.33006321 L30.9445833,3.33006321 C31.0480833,3.53427343 31.2244167,3.68350398 31.35475,3.86611504 C31.45825,4.07621594 31.5464167,4.28631684 31.6499167,4.49445418 L31.67675,4.46500078 C31.8569167,4.33540584 31.9450833,4.1272685 31.9450833,3.81113537 C31.8684167,3.71884806 31.8569167,3.62656075 31.79175,3.53623699 C31.7150833,3.40467849 31.55025,3.33988101 31.44675,3.23581234 L31.4429167,3.23973946 Z M11.0591667,29.1469476 L9.28241667,29.1469476 C9.22491667,26.0798672 9.04666667,23.1973614 8.76491667,20.4876488 L8.74958333,20.4876488 L6.04708333,29.1469476 L4.69583333,29.1469476 L2.0125,20.4876488 L1.99333333,20.4876488 C1.79591667,23.0854385 1.67133333,25.9718714 1.61958333,29.1469476 L0,29.1469476 C0.105416667,25.286589 0.368,21.6657847 0.785833333,18.2884618 L2.99,18.2884618 L5.54875,26.2683689 L5.56408333,26.2683689 L8.14583333,18.2884618 L10.2445833,18.2884618 C10.7084167,22.2450349 10.9805833,25.8678027 11.0649167,29.1469476 L11.0591667,29.1469476 Z M18.7584167,21.1356236 C18.0339167,25.1511034 17.0794167,28.0728804 15.89875,29.8931003 C14.9749167,31.2990091 13.9629167,32 12.8646667,32 C12.5714167,32 12.213,31.9096762 11.7798333,31.7290287 L11.7798333,30.7590302 C11.9906667,30.7924107 12.2398333,30.8100828 12.5196667,30.8100828 C13.0333333,30.8100828 13.4454167,30.6628158 13.75975,30.3741725 C14.1373333,30.0207317 14.3251667,29.6240926 14.3251667,29.1862188 C14.3251667,28.881867 14.1775833,28.2633457 13.8843333,27.3326183 L11.9408333,21.1356236 L13.685,21.1356236 L15.0784167,25.7696247 C15.39275,26.8220928 15.525,27.5564641 15.4713333,27.9747024 C16.238,25.8854748 16.7708333,23.6018547 17.07175,21.1356236 L18.7584167,21.1356236 L18.7584167,21.1356236 Z M42.3813333,29.1469476 L37.3405,29.1469476 L37.3405,18.2884618 L39.03675,18.2884618 L39.03675,27.8117269 L42.3813333,27.8117269 L42.3813333,29.1469476 Z M36.018,29.4120282 L34.0706667,28.4302483 C34.2431667,28.2810177 34.4099167,28.1200058 34.5594167,27.9393583 C35.3893333,26.945797 35.8014167,25.4692001 35.8014167,23.5154581 C35.8014167,19.9221436 34.42525,18.1235228 31.671,18.1235228 C30.3216667,18.1235228 29.2675,18.5790687 28.5085,19.492124 C27.6843333,20.4896124 27.2703333,21.9583551 27.2703333,23.9003158 C27.2703333,25.8088959 27.6345,27.2108776 28.3705,28.1023338 C29.0413333,28.9073933 30.0514167,29.3099231 31.4045833,29.3099231 C31.9105833,29.3099231 32.3744167,29.2451256 32.7941667,29.1174942 L35.33375,30.6333624 L36.02375,29.4120282 L36.018,29.4120282 Z M29.7083333,26.9732869 C29.2770833,26.2664054 29.0624167,25.1275407 29.0624167,23.5645471 C29.0624167,20.8293082 29.8750833,19.4607071 31.4965833,19.4607071 C32.3456667,19.4607071 32.9724167,19.7886215 33.3691667,20.442487 C33.7985,21.1532956 34.0131667,22.2803789 34.0131667,23.8257005 C34.0131667,26.5825385 33.2005,27.9648846 31.579,27.9648846 C30.7260833,27.9648846 30.1031667,27.6369701 29.7045,26.9831047 L29.7083333,26.9732869 Z M26.5305,26.138774 C26.5305,27.0616471 26.2008333,27.8195812 25.5415,28.4086491 C24.8821667,28.9977171 24.0024167,29.292251 22.8888333,29.292251 C21.8480833,29.292251 20.8495,28.9545187 19.8739167,28.2810177 L20.3281667,27.3463633 C21.1676667,27.7783464 21.92475,27.9904109 22.609,27.9904109 C23.2453333,27.9904109 23.7455833,27.847071 24.10975,27.5584277 C24.4700833,27.2697844 24.68475,26.8633275 24.68475,26.3508384 C24.68475,25.7028637 24.2439167,25.1530669 23.44275,24.6916304 C22.6990833,24.2733921 21.2136667,23.4015716 21.2136667,23.4015716 C20.4048333,22.7987587 20.0023333,22.1527476 20.0023333,21.0904617 C20.0023333,20.2068598 20.30325,19.4999782 20.9031667,18.9599993 C21.5069167,18.4141297 22.2831667,18.145122 23.2415,18.145122 C24.2228333,18.145122 25.1198333,18.4121661 25.9248333,18.9501815 L25.5165833,19.884836 C24.8265833,19.5863749 24.1461667,19.4332172 23.47725,19.4332172 C22.9348333,19.4332172 22.5150833,19.5667393 22.22375,19.8377105 C21.9305,20.1047547 21.7484167,20.4464141 21.7484167,20.8666159 C21.7484167,21.5106635 22.1969167,22.0643874 23.0249167,22.5356417 C23.7781667,22.9578071 25.3,23.8512268 25.3,23.8512268 C26.1299167,24.4501125 26.542,25.0882695 26.542,26.1446646 L26.5305,26.138774 Z M44.5126667,14.648022 C43.48725,14.6205321 42.6918333,14.7265644 42.02675,15.0171712 C41.8350833,15.0957136 41.5284167,15.0957136 41.5015833,15.3450857 C41.607,15.4491544 41.6223333,15.6199841 41.7124167,15.7652875 C41.86575,16.0284045 42.13025,16.3798817 42.3755833,16.5644563 C42.6439167,16.7804479 42.91225,16.9885853 43.194,17.1731599 C43.6923333,17.4873294 44.25775,17.6738676 44.7465,17.9900008 C45.0244167,18.1745754 45.3080833,18.408239 45.5898333,18.604595 C45.72975,18.702773 45.8198333,18.8794933 46,18.9423273 L46,18.9030561 C45.9118333,18.7852425 45.885,18.6144128 45.79875,18.4828543 C45.6703333,18.3512958 45.5419167,18.2334822 45.4154167,18.1038872 C45.0435833,17.5933617 44.5816667,17.1476336 44.0833333,16.7784844 C43.6731667,16.4918046 42.7761667,16.0912384 42.6075,15.6101663 L42.5825833,15.5826764 C42.8624167,15.5571502 43.1959167,15.4530815 43.46425,15.3745391 C43.8993333,15.2567255 44.298,15.2822518 44.7484167,15.1664017 C44.9515833,15.1133856 45.1566667,15.0485882 45.36175,14.9818271 L45.36175,14.8640135 C45.13175,14.6283864 44.95925,14.3083261 44.7215833,14.0884074 C44.0699167,13.5091573 43.3473333,12.9456156 42.6055833,12.4723977 C42.2030833,12.2092807 41.69325,12.0404145 41.2696667,11.8165687 C41.1163333,11.7380263 40.8595,11.6987551 40.7713333,11.5671966 C40.5413333,11.2805169 40.4071667,10.8995863 40.24425,10.5579269 C39.87625,9.83533686 39.5159167,9.03616802 39.1958333,8.27430682 C38.9658333,7.75985415 38.8259167,7.24736504 38.5441667,6.77611068 C37.2216667,4.54354318 35.7899167,3.19065047 33.5876667,1.86721116 C33.11425,1.59231278 32.5469167,1.47449919 31.947,1.32919577 C31.6269167,1.31348729 31.3068333,1.28992457 30.9886667,1.27617965 C30.7778333,1.18389234 30.5746667,0.934520246 30.3945,0.814743098 C29.6661667,0.343488743 27.7801667,-0.677562358 27.2435,0.673366791 C26.8985,1.52555175 27.75525,2.36595535 28.0523333,2.79793851 C28.27275,3.09836316 28.5506667,3.44198612 28.704,3.77971841 C28.7940833,4.00749135 28.819,4.24115497 28.9090833,4.4787457 C29.11225,5.05603229 29.3058333,5.7000799 29.5741667,6.24005885 C29.7140833,6.51495723 29.8674167,6.80360052 30.0475833,7.05100905 C30.1510833,7.19434892 30.3274167,7.26110995 30.3676667,7.49673713 C30.1875,7.76378127 30.176,8.15256611 30.0725,8.47851704 C29.6125,9.96493181 29.7926667,11.8028238 30.4443333,12.8965266 C30.6494167,13.2224775 31.1381667,13.9450675 31.79175,13.6682056 C32.36675,13.4325784 32.24025,12.6864257 32.4050833,12.0286332 C32.4434167,11.8715484 32.4185,11.7674797 32.4970833,11.6614475 L32.4970833,11.6909009 C32.67725,12.0600501 32.8574167,12.4115273 33.02225,12.7806766 C33.4170833,13.4247242 34.1070833,14.0923345 34.684,14.5380626 C34.9906667,14.7736898 35.2340833,15.1821102 35.6174167,15.3274137 L35.6174167,15.2881425 L35.5886667,15.2881425 C35.50625,15.174256 35.397,15.1192763 35.2935,15.026989 C35.0635,14.7913618 34.80475,14.5027185 34.6226667,14.2415651 C34.086,13.501303 33.6125833,12.6903528 33.1909167,11.8499492 C32.9800833,11.4376017 32.80375,10.9938372 32.6350833,10.5873803 C32.5584167,10.4302955 32.5584167,10.1946683 32.43,10.1161259 C32.2383333,10.4028056 31.9565833,10.6521777 31.8166667,11.0056185 C31.57325,11.5711237 31.5483333,12.2662239 31.4563333,12.9888139 C31.4045833,13.0025588 31.4295,12.9888139 31.4045833,13.0163038 C30.9944167,12.9141986 30.8545,12.4782884 30.7011667,12.1130662 C30.3178333,11.1803753 30.2545833,9.6821792 30.5861667,8.60811198 C30.67625,8.33321361 31.0595833,7.46532017 30.90625,7.20220316 C30.82575,6.95283106 30.57275,6.8094912 30.4328333,6.60724454 C30.2660833,6.36376312 30.0878333,6.04762999 29.9728333,5.7688045 C29.6661667,5.03443313 29.5128333,4.22151937 29.1793333,3.487148 C29.026,3.14745215 28.7576667,2.79204783 28.5391667,2.47984182 C28.29575,2.12640105 28.0274167,1.87702895 27.8338333,1.45879072 C27.7705833,1.31545085 27.6805,1.07786011 27.7820833,0.920775327 C27.8089167,0.814743098 27.8625833,0.773508342 27.96225,0.744054944 C28.1309167,0.602678638 28.6043333,0.78725326 28.7710833,0.865795653 C29.2445,1.06215163 29.6431667,1.24672626 30.0399167,1.52162463 C30.2200833,1.65121958 30.4136667,1.90059167 30.6436667,1.96538915 L30.912,1.96538915 C31.3221667,2.05767646 31.7840833,1.99287898 32.1674167,2.10872901 C32.8478333,2.33257483 33.4611667,2.65852576 34.01125,3.01196653 C35.69025,4.10370578 37.07025,5.65295447 38.0075,7.50066425 C38.1608333,7.80305246 38.2279167,8.07991439 38.3678333,8.39408396 C38.6361667,9.0420587 38.96775,9.69592412 39.2399167,10.3222997 C39.50825,10.940821 39.767,11.5711237 40.15225,12.0836128 C40.3439167,12.3585112 41.1144167,12.5018511 41.4594167,12.645191 C41.7143333,12.7630045 42.1110833,12.8710003 42.3410833,13.0143402 C42.7819167,13.2892386 43.21125,13.6034081 43.62525,13.9057964 C43.8360833,14.0550269 44.4743333,14.3829414 44.5126667,14.648022 L44.5126667,14.648022 Z" id="Shape"></path>
        </g>
    </g>
</svg>