<?xml version="1.0" encoding="UTF-8"?>
<svg width="48px" height="48px" viewBox="0 0 48 48" version="1.1" xmlns="http://www.w3.org/2000/svg" xmlns:xlink="http://www.w3.org/1999/xlink">
    <!-- Generator: Sketch 63.1 (92452) - https://sketch.com -->
    <title>Logo/Technology/PHP@1x</title>
    <desc>Created with Sketch.</desc>
    <g id="Logo/Technology/PHP" stroke="none" stroke-width="1" fill="none" fill-rule="evenodd">
        <g id="php" transform="translate(0.000000, 11.000000)" fill="#8892BE" fill-rule="nonzero">
            <path d="M14.02,9.414 L12.132,9.414 L11.102,14.71 L12.778,14.71 C13.89,14.71 14.718,14.5 15.262,14.082 C15.806,13.662 16.172,12.964 16.362,11.984 C16.546,11.044 16.462,10.38 16.114,9.994 C15.764,9.608 15.068,9.414 14.02,9.414 L14.02,9.414 Z M24,0.376 C10.746,0.376 0,6.028 0,13 C0,19.972 10.746,25.626 24,25.626 C37.254,25.626 48,19.972 48,13 C48,6.028 37.254,0.376 24,0.376 Z M17.48,15.278 C16.958,15.778 16.33,16.154 15.646,16.38 C14.974,16.596 14.116,16.708 13.076,16.708 L10.714,16.708 L10.06,20.07 L7.304,20.07 L9.764,7.418 L15.064,7.418 C16.658,7.418 17.82,7.836 18.552,8.674 C19.284,9.51 19.504,10.678 19.212,12.178 C19.1001573,12.7715433 18.8942301,13.3434132 18.602,13.872 C18.316,14.382 17.942,14.852 17.48,15.278 L17.48,15.278 Z M25.528,16.708 L26.614,11.11 C26.74,10.474 26.692,10.038 26.478,9.808 C26.264,9.576 25.806,9.46 25.104,9.46 L22.92,9.46 L21.512,16.71 L18.776,16.71 L21.236,4.056 L23.97,4.056 L23.316,7.42 L25.752,7.42 C27.286,7.42 28.342,7.688 28.924,8.222 C29.506,8.756 29.68,9.622 29.45,10.82 L28.306,16.708 L25.528,16.708 L25.528,16.708 Z M40.722,12.178 C40.6119826,12.772039 40.4059524,13.344195 40.112,13.872 C39.826,14.382 39.452,14.852 38.99,15.278 C38.467713,15.776479 37.8413258,16.1528578 37.156,16.38 C36.484,16.596 35.626,16.708 34.584,16.708 L32.224,16.708 L31.57,20.072 L28.814,20.072 L31.274,7.42 L36.572,7.42 C38.166,7.42 39.328,7.838 40.06,8.676 C40.792,9.51 41.014,10.678 40.722,12.178 L40.722,12.178 Z M35.532,9.414 L33.646,9.414 L32.614,14.71 L34.29,14.71 C35.404,14.71 36.232,14.5 36.774,14.082 C37.318,13.662 37.684,12.964 37.876,11.984 C38.06,11.044 37.974,10.38 37.626,9.994 C37.278,9.608 36.578,9.414 35.532,9.414 L35.532,9.414 Z" id="Shape"></path>
        </g>
    </g>
</svg>