<?xml version="1.0" encoding="UTF-8"?>
<svg width="48px" height="48px" viewBox="0 0 48 48" version="1.1" xmlns="http://www.w3.org/2000/svg" xmlns:xlink="http://www.w3.org/1999/xlink">
    <!-- Generator: Sketch 63.1 (92452) - https://sketch.com -->
    <title>Logo/Technology/PostgreSQL@1x</title>
    <desc>Created with Sketch.</desc>
    <g id="Logo/Technology/PostgreSQL" stroke="none" stroke-width="1" fill="none" fill-rule="evenodd">
        <g id="postgresql" fill="#336791" fill-rule="nonzero">
            <path d="M33.7656796,0 C31.8833545,0.0138730138 30.0119698,0.285101461 28.2045014,0.806007264 L28.0773311,0.846007624 C26.9372722,0.646381 25.7831142,0.536038764 24.6255654,0.51600465 C22.2476823,0.47600429 20.2048829,1.04800944 18.5577245,2.00001802 C16.9347891,1.442013 13.5678035,0.480004326 10.0191461,0.672006056 C7.54840851,0.806007264 4.85159036,1.55001397 2.85319966,3.6400328 C0.860864698,5.73005164 -0.192832214,8.96408079 0.0292111962,13.3641204 C0.08976849,14.5781314 0.438982218,16.5581492 1.01831366,19.1221723 C1.59764511,21.6861954 2.41113142,24.6882225 3.42647538,27.4262472 C4.44181934,30.1662719 5.55405497,32.626294 7.2920493,34.2983091 C8.16003718,35.1363167 9.35503444,35.840323 10.7640008,35.7823225 C11.7531033,35.7423221 12.6473326,35.3123182 13.4184289,34.6783125 C13.7938841,35.1683169 14.1955808,35.3823189 14.5609431,35.5803207 C15.0211786,35.8303229 15.4693025,36.0003244 15.9335751,36.1123254 C16.7672472,36.3183273 18.1943808,36.5943298 19.8657621,36.3123273 C20.4350006,36.2183264 21.0345178,36.0343247 21.6320165,35.7723224 C21.6542208,36.4323283 21.6804623,37.0783342 21.7067038,37.73234 C21.7894654,39.8043587 21.8419484,41.718376 22.4697257,43.3963911 C22.5706545,43.6703936 22.8471995,45.0824063 23.9372308,46.3284175 C25.0272621,47.5764288 27.162916,48.3544358 29.5953006,47.8384311 C31.3110906,47.4744278 33.4931718,46.8184219 34.9425097,44.7744035 C36.3756989,42.7543853 37.0216434,39.8563592 37.1488137,35.1563168 C37.1811109,34.9023145 37.2194639,34.6863126 37.2598354,34.4843108 L37.6009749,34.514311 L37.6413464,34.514311 C39.4721952,34.5963118 41.4584745,34.3383095 43.1177443,33.5743026 C44.587268,32.9002965 45.6995036,32.2182904 46.5089528,31.0082795 C46.7108104,30.7082767 46.9328538,30.3462735 46.9934111,29.7222679 C47.0539684,29.0982622 46.6926432,28.1222534 46.093126,27.6722494 C44.892073,26.7682412 44.1371254,27.1122443 43.3276763,27.2782458 C42.5303017,27.452909 41.7177375,27.550699 40.9013474,27.5702485 C43.2348218,23.6762134 44.9082216,19.5401761 45.8630083,15.8801431 C46.4282097,13.7201236 46.7451262,11.7281057 46.7713677,9.98609 C46.7976092,8.2440743 46.6542903,6.7020604 45.6005934,5.36804838 C42.3082952,1.20001081 37.6796993,0.0480004326 34.0987447,0.0080000721 C33.987723,0.00600005407 33.8767013,0.00400003605 33.7656796,0.00600005407 L33.7656796,0 Z M33.6708065,1.28001154 C37.0579778,1.24801125 41.3858057,2.19001974 44.4923949,6.12405519 C45.1908223,7.00806316 45.3987357,8.3000748 45.3745128,9.89208915 C45.3482713,11.4821035 45.0515406,13.3861206 44.5085435,15.4721394 C43.4548466,19.5121758 41.4645302,24.2222183 38.6607275,28.4482564 C38.7597512,28.5179626 38.8668207,28.5757051 38.9796626,28.6202579 C39.5650497,28.8602601 40.8993288,29.0662619 43.5618311,28.5242571 C44.2319985,28.3842558 44.7225126,28.290255 45.2311939,28.6742584 C45.4817866,28.8847121 45.6184875,29.199268 45.6005934,29.5242661 C45.5734299,29.7670279 45.482997,29.9986132 45.3381784,30.1962721 C44.8234414,30.962279 43.8080975,31.6882856 42.5061157,32.286291 C41.3535085,32.8182958 39.7002944,33.0962983 38.2348079,33.1122984 C37.500046,33.1202985 36.8218043,33.064298 36.24651,32.8862964 L36.2101757,32.8722962 C35.9881323,34.9923154 35.4774324,39.1783531 35.1443673,41.0883703 C34.8779152,42.6283842 34.411624,43.8523952 33.5214318,44.7684035 C32.6332582,45.6844117 31.375685,46.2364167 29.684118,46.5964199 C27.5888356,47.042424 26.0607732,46.5624196 25.0757079,45.7404122 C24.0926612,44.9204048 23.6425186,43.832395 23.3720294,43.166389 C23.1863203,42.7063849 23.0894287,42.1103795 22.9965742,41.3143723 C22.9037196,40.5183652 22.835088,39.5443564 22.7886608,38.4463465 C22.7268255,36.7650752 22.7066337,35.0825537 22.7281035,33.400301 C21.8528451,34.194582 20.7652195,34.7222855 19.5952728,34.9203147 C18.2044736,35.1543168 16.9630491,34.9243147 16.2222316,34.7403131 C15.8570406,34.6494361 15.5045101,34.5144223 15.1725718,34.3383095 C14.8294138,34.1563078 14.5024044,33.950306 14.2843982,33.5443023 C14.1562988,33.3117752 14.115532,33.0417867 14.1693393,32.7822954 C14.2375631,32.5192474 14.3924243,32.2862759 14.609389,32.1202895 C15.0090671,31.7982866 15.5379341,31.6182849 16.3352718,31.4542835 C17.7866283,31.1582808 18.293291,30.956279 18.6021332,30.7142768 C18.8645481,30.5062749 19.1612789,30.0862711 19.6861088,29.4702656 C19.6836015,29.4429696 19.6815826,29.4156317 19.680053,29.3882649 C18.7407771,29.3620787 17.8209757,29.1167694 16.9953463,28.6722584 C16.6925599,28.9882612 15.1463303,30.6082758 13.2609799,32.8562961 C12.4676793,33.7963046 11.5916172,34.3363094 10.6671091,34.3743098 C9.74260112,34.4143101 8.90691047,33.952306 8.19637155,33.2702998 C6.7773123,31.9042875 5.64489091,29.5542663 4.65780702,26.8982424 C3.67274171,24.2422185 2.87136685,21.2841918 2.30212829,18.7641691 C1.73087115,16.2441464 1.39376888,14.2121281 1.34532305,13.2321192 C1.13337252,9.06808172 2.11641926,6.26205643 3.8019306,4.49204048 C5.48946052,2.72202453 7.80274915,2.05201849 10.0574991,1.92401734 C14.1047449,1.69401527 17.9481144,3.09202787 18.7252664,3.39203057 C20.2230501,2.38402149 22.1528092,1.75601583 24.5629895,1.79601619 C25.7071996,1.81191705 26.8457632,1.95821383 27.9562165,2.23202012 L27.9965881,2.21401995 C28.4853506,2.04379156 28.9833777,1.90089855 29.4883161,1.7860161 C30.8593371,1.46912262 32.2610573,1.30079955 33.6687879,1.28401157 L33.6708065,1.28001154 Z M33.9776301,2.62002361 L33.6829179,2.62002361 C32.5264343,2.63600364 31.3743392,2.76462369 30.2432637,3.00402707 C32.7584099,4.10803702 34.6578904,5.80805234 35.9962066,7.50406763 C36.9258667,8.67836431 37.6942413,9.96963268 38.2812351,11.3441022 C38.5032785,11.872107 38.6526532,12.318111 38.7374334,12.6641141 C38.7798235,12.8381157 38.8080836,12.984117 38.8181765,13.1361184 C38.8222136,13.2121191 38.8262508,13.2901198 38.7939535,13.424121 C38.7939535,13.430121 38.7838607,13.4441212 38.7818421,13.4501212 C38.8423994,15.202137 38.4043683,16.3901477 38.3518853,18.0621628 C38.3115138,19.2741737 38.6243931,20.6981865 38.701099,22.2522005 C38.7737678,23.7122137 38.596133,25.3162282 37.6393278,26.8902423 C37.7200709,26.9862432 37.7927396,27.0822441 37.8694455,27.1782449 C40.4007404,23.2282093 42.2255335,18.85817 43.1984874,15.1321364 C43.7192801,13.1261183 43.9958251,11.3081019 44.020048,9.86808893 C44.0402338,8.42807595 43.7697445,7.38406655 43.4245679,6.94806262 C40.7156383,3.51603169 37.0499035,2.64202381 33.9776301,2.61802359 L33.9776301,2.62002361 Z M24.3086489,3.13202823 C21.9226915,3.13802828 20.2109386,3.85203472 18.912994,4.92204436 C17.5746778,6.02805433 16.6764113,7.54206797 16.0869869,9.09208194 C15.3865409,10.9320985 15.1463303,12.7121146 15.0514572,13.9201255 L15.0776987,13.9041253 C15.7983305,13.5041217 16.7450429,13.1041181 17.7583682,12.872116 C18.7716936,12.6421139 19.8637435,12.5701133 20.852846,12.9501167 C21.8419484,13.3301201 22.6594719,14.2241282 22.9562026,15.5801404 C24.3772805,22.0941991 22.5141344,24.5162209 21.8278184,26.3442374 C21.5674509,27.006812 21.3443918,27.6831911 21.1596696,28.3702557 C21.2464684,28.3502555 21.3332672,28.3262553 21.4200659,28.3182552 C21.9045243,28.2782548 22.2840167,28.4382563 22.5100972,28.5342572 C23.2004504,28.8182597 23.6748159,29.4142651 23.9311751,30.0942712 C23.9977881,30.2722728 24.0462339,30.4642745 24.074494,30.6622763 C24.1043268,30.7435798 24.1180348,30.8298258 24.1148655,30.9162786 C24.0383329,33.4078787 24.0470851,35.9013336 24.141107,38.392346 C24.1875343,39.4683557 24.2561659,40.4163642 24.3429647,41.164371 C24.4297634,41.9103777 24.5528966,42.4783828 24.6316211,42.6703846 C24.8899989,43.3103903 25.2674727,44.1483979 25.9497515,44.718403 C26.6320304,45.2864081 27.61104,45.6664116 29.3994987,45.2864081 C30.9497654,44.9564052 31.9065707,44.498401 32.5464594,43.8403951 C33.1843296,43.1823892 33.5658405,42.2663809 33.8100883,40.8643683 C34.1754506,38.7643493 34.9102124,32.6742945 34.9990298,31.5282841 C34.9586583,30.6642764 35.0878472,30.0002704 35.3664107,29.4942658 C35.6530486,28.9742611 36.0971354,28.6562583 36.4806649,28.4842567 C36.6724297,28.3982559 36.852083,28.3402554 36.9994391,28.298255 C36.8434336,28.0761289 36.679834,27.8593345 36.508925,27.6482492 C35.9559678,26.9837831 35.5031362,26.2434129 35.1645531,25.4502294 C35.0023948,25.1226628 34.829376,24.8004847 34.6457789,24.4842207 C34.3773082,24.0042163 34.0381874,23.4042109 33.6829179,22.7302048 C32.972379,21.3801927 32.1992642,19.7441779 31.7975675,18.1501636 C31.3978894,16.5581492 31.3393507,14.9101344 32.3647875,13.7481239 C33.2731469,12.7161146 34.8678223,12.2881107 37.261854,12.5281129 C37.1912038,12.318111 37.1488137,12.1441094 37.0297177,11.8641069 C36.4884792,10.6018689 35.7819696,9.41567794 34.9283796,8.33607513 C32.8997103,5.76605196 29.6154864,3.218029 24.5407852,3.13602826 L24.3086489,3.13602826 L24.3086489,3.13202823 Z M10.901264,3.23602916 C10.6449048,3.23602916 10.3885456,3.24402924 10.134205,3.25802936 C8.09544273,3.37403041 6.16770221,3.96003569 4.78901449,5.40804874 C3.40830819,6.85606179 2.49994878,9.23008318 2.69776928,13.1601186 C2.73612223,13.9041253 3.06313162,15.9881441 3.62429587,18.4641664 C4.18344155,20.9401887 4.9767421,23.854215 5.92951019,26.4282382 C6.88429686,29.0022614 8.04094117,31.2422816 9.13904676,32.3022911 C9.69213671,32.8322959 10.1725579,33.0462978 10.6085704,33.0282977 C11.0466015,33.0082975 11.57345,32.7582952 12.2173759,31.9922883 C13.391387,30.5891406 14.6098699,29.2231129 15.8709993,27.8962514 C14.0525327,26.3318658 13.1644871,23.9568654 13.5153205,21.5961946 C13.7232339,20.1181813 13.751494,18.7361689 13.7272711,17.644159 C13.7030481,16.5801494 13.6263422,15.872143 13.6263422,15.4301391 C13.6259807,15.4174748 13.6259807,15.404803 13.6263422,15.3921387 L13.6263422,15.3821386 L13.6243237,15.3701385 L13.6243237,15.3681385 C13.6231224,13.0657055 14.0275229,10.7807324 14.8193209,8.61607765 C15.3845223,7.12806424 16.2262687,5.61605061 17.487879,4.39203958 C16.2484731,3.98803594 14.0482247,3.37203039 11.6663045,3.25602934 C11.4108263,3.24302959 11.1550601,3.23636078 10.8992454,3.23602916 L10.901264,3.23602916 Z M35.927575,13.8001244 C34.5569616,13.8181245 33.7878839,14.1681277 33.3841686,14.6261318 C32.8129115,15.2761377 32.7584099,16.4161479 33.1136794,17.8201606 C33.4669303,19.2261733 34.1976549,20.7981874 34.8839709,22.1041992 C35.2271289,22.7582051 35.5601941,23.3462104 35.8286647,23.8242147 C36.099154,24.304219 36.2969745,24.6442221 36.418089,24.9342247 C36.5291108,25.2022271 36.6522439,25.4382293 36.7773957,25.6582312 C37.3082813,24.5482212 37.4031544,23.4582114 37.3486528,22.3222012 C37.2780026,20.9161885 36.9489747,19.4781755 36.9974205,18.0221624 C37.0519221,16.3201471 37.3910429,15.2121371 37.4213215,13.8961252 C36.9259863,13.8325496 36.4270488,13.8004836 35.927575,13.8001244 L35.927575,13.8001244 Z M19.3066164,14.0301264 C18.8879029,14.0339967 18.4708988,14.0836308 18.0631733,14.1781278 C17.2505647,14.3737426 16.4678754,14.6757344 15.7357546,15.0761359 C15.4881105,15.2077512 15.2524063,15.3603199 15.0312714,15.53214 L14.9868628,15.5721403 C14.9989742,15.864143 15.0575129,16.5721494 15.0817359,17.6141587 C15.1059588,18.754169 15.0776987,20.2081821 14.8556553,21.7821963 C14.3732155,25.2022271 16.8782689,28.0342526 19.8213534,28.0382527 C19.9929324,27.3362464 20.2755331,26.6242399 20.5581338,25.8742332 C21.3776758,23.6862135 22.9905184,22.0901991 21.6320165,15.862143 C21.4099731,14.8421338 20.9699234,14.43013 20.3643505,14.198128 C20.0249345,14.0791842 19.6665491,14.0222613 19.3066164,14.0301264 L19.3066164,14.0301264 Z M35.2876862,14.4381301 L35.3886151,14.4381301 C35.5218411,14.4421302 35.6449743,14.4561303 35.7519588,14.4821305 C35.8609619,14.5061307 35.9538165,14.5421311 36.0305224,14.5921315 C36.1101107,14.6409591 36.1651147,14.7208898 36.1819156,14.8121335 L36.179897,14.8281336 L36.1819156,14.8281336 L36.179897,14.8281336 C36.1838402,14.9230793 36.1592518,15.0170483 36.1092468,15.0981361 C36.0497156,15.2079078 35.9749767,15.3088875 35.8872034,15.3981388 C35.6824299,15.6215607 35.4081903,15.7707946 35.1080329,15.8221426 C34.8159498,15.8571176 34.5211379,15.783736 34.2804166,15.6161407 C34.1818817,15.5504667 34.0934887,15.4709707 34.0180016,15.3801386 C33.9526831,15.3087774 33.9086562,15.2208408 33.8908313,15.1261363 C33.8823048,15.0328757 33.9129765,14.9402595 33.9756115,14.870134 C34.0418465,14.7955651 34.1220525,14.7344354 34.211785,14.6901324 C34.4055683,14.5821314 34.6679833,14.5021307 34.964714,14.4581303 C35.0757357,14.4421302 35.1847388,14.4341301 35.2876862,14.4321301 L35.2876862,14.4381301 Z M19.5024183,14.7741331 C19.6094029,14.7741331 19.7224431,14.7841332 19.837502,14.8001334 C20.1463442,14.8421338 20.4208706,14.9241345 20.6308026,15.0441356 C20.7331891,15.0970864 20.8243362,15.1690621 20.8992732,15.2561375 C20.9817643,15.349512 21.021263,15.4727167 21.0082763,15.5961406 C20.9888718,15.7111335 20.9362921,15.8181046 20.8568831,15.9041433 C20.7743002,16.0045989 20.6770029,16.0922378 20.5682267,16.1641457 C20.3057044,16.3484209 19.9832317,16.429011 19.6639044,16.3901477 C19.3375667,16.3369988 19.0388638,16.1763366 18.8161023,15.9341436 C18.7213301,15.8366184 18.6411208,15.7261661 18.5779103,15.6061406 C18.5113763,15.5005345 18.4822553,15.3759729 18.4951487,15.2521375 C18.5254273,15.0361355 18.7050806,14.9241345 18.8806968,14.8621339 C19.0807375,14.798802 19.290659,14.7717022 19.5003997,14.7821332 L19.5024183,14.7741331 Z M37.790721,29.4602655 L37.7846653,29.4622655 C37.4879346,29.5682665 37.2436868,29.6122669 37.037792,29.7022677 C36.8295702,29.7816907 36.6579382,29.9339567 36.5553522,30.1302715 C36.4281819,30.3602736 36.3191788,30.7682773 36.351476,31.4622835 C36.4428,31.5245865 36.5436827,31.5718626 36.6502253,31.6022848 C36.9954019,31.7062857 37.5747334,31.7742864 38.2206778,31.7642863 C39.5085296,31.7502861 41.0931121,31.4522835 41.9348585,31.06428 C42.6253836,30.7464304 43.2663988,30.3322205 43.8383761,29.8342689 L43.8363575,29.8342689 C41.0244805,30.4102741 39.4358609,30.2562727 38.4608884,29.8582691 C38.2187846,29.7584641 37.992943,29.6236657 37.790721,29.4582655 L37.790721,29.4602655 Z M21.5795335,29.6482672 L21.5371434,29.6482672 C21.4301588,29.6582673 21.2747284,29.6942676 20.9739605,30.0242706 C20.2714959,30.8042776 20.0252296,31.294282 19.4458982,31.7522862 C18.8665667,32.2082903 18.1136377,32.4522925 16.6097982,32.7582952 C16.1334142,32.8542961 15.8609064,32.960297 15.6792345,33.0462978 C15.7377732,33.0942983 15.7317175,33.1062984 15.8205348,33.1522988 C16.0405597,33.2722999 16.3231604,33.3783008 16.5512595,33.4363013 C17.197204,33.5963028 18.2589752,33.7823045 19.3671737,33.5963028 C20.4753722,33.4083011 21.6279793,32.8822963 22.6110261,31.516284 C22.7805865,31.2802819 22.7987537,30.9322788 22.6594719,30.5582754 C22.5181715,30.184272 22.2093293,29.8622691 21.9913231,29.7722683 C21.8615992,29.7102444 21.7224921,29.6697067 21.5795335,29.6522672 L21.5795335,29.6482672 Z" id="Shape"></path>
        </g>
    </g>
</svg>