<?xml version="1.0" encoding="UTF-8"?>
<svg width="48px" height="48px" viewBox="0 0 48 48" version="1.1" xmlns="http://www.w3.org/2000/svg" xmlns:xlink="http://www.w3.org/1999/xlink">
    <!-- Generator: Sketch 63.1 (92452) - https://sketch.com -->
    <title>Logo/Technology/Python@1x</title>
    <desc>Created with Sketch.</desc>
    <g id="Logo/Technology/Python" stroke="none" stroke-width="1" fill="none" fill-rule="evenodd">
        <g id="python" transform="translate(-1.000000, 0.000000)" fill="#FFDE57" fill-rule="nonzero">
            <path d="M28.62,0.36 L30.42,0.76 L31.88,1.28 L33.06,1.88 L33.96,2.52 L34.64,3.2 L35.14,3.88 L35.46,4.54 L35.66,5.14 L35.74,5.66 L35.78,6.06 L35.76,6.32 L35.76,17 L35.66,18.26 L35.4,19.36 L34.98,20.28 L34.46,21.04 L33.86,21.66 L33.2,22.16 L32.5,22.54 L31.8,22.82 L31.14,23.02 L30.54,23.16 L30.02,23.24 L29.6,23.28 L17.66,23.28 L16.28,23.38 L15.1,23.66 L14.1,24.1 L13.28,24.64 L12.62,25.28 L12.08,25.98 L11.68,26.7 L11.38,27.44 L11.18,28.14 L11.04,28.78 L10.96,29.32 L10.92,29.74 L10.92,35.86 L6.46,35.86 L6.04,35.8 L5.48,35.66 L4.84,35.42 L4.14,35.06 L3.42,34.54 L2.7,33.82 L2,32.9 L1.36,31.72 L0.8,30.26 L0.38,28.5 L0.1,26.4 L0,23.94 L0.12,21.5 L0.44,19.42 L0.92,17.68 L1.56,16.26 L2.28,15.12 L3.08,14.24 L3.92,13.58 L4.76,13.1 L5.56,12.78 L6.28,12.58 L6.92,12.48 L7.4,12.46 L7.72,12.46 L7.84,12.48 L24.16,12.48 L24.16,10.82 L12.48,10.82 L12.46,5.32 L12.42,4.58 L12.52,3.9 L12.74,3.28 L13.08,2.72 L13.58,2.2 L14.2,1.74 L14.96,1.34 L15.84,0.98 L16.86,0.68 L18.02,0.44 L19.3,0.24 L20.72,0.12 L22.26,0.04 L23.94,3.55271368e-15 L26.48,0.1 L28.62,0.36 Z M16.02,4.32 L15.56,4.98 L15.4,5.8 L15.56,6.62 L16.02,7.3 L16.68,7.74 L17.5,7.92 L18.32,7.74 L18.98,7.3 L19.44,6.62 L19.6,5.8 L19.44,4.98 L18.98,4.32 L18.32,3.88 L17.5,3.7 L16.68,3.88 L16.02,4.32 Z M42.2,12.22 L42.76,12.34 L43.4,12.58 L44.1,12.94 L44.82,13.48 L45.54,14.18 L46.24,15.12 L46.88,16.3 L47.44,17.76 L47.86,19.52 L48.14,21.6 L48.24,24.06 L48.12,26.52 L47.8,28.6 L47.32,30.32 L46.68,31.74 L45.96,32.88 L45.16,33.78 L44.32,34.44 L43.48,34.92 L42.68,35.24 L41.96,35.42 L41.32,35.52 L40.84,35.56 L40.52,35.54 L24.08,35.54 L24.08,37.18 L35.76,37.18 L35.78,42.7 L35.82,43.42 L35.72,44.1 L35.5,44.72 L35.16,45.3 L34.66,45.8 L34.04,46.28 L33.28,46.68 L32.4,47.02 L31.38,47.32 L30.22,47.58 L28.94,47.76 L27.52,47.9 L25.98,47.98 L24.3,48 L21.76,47.92 L19.62,47.64 L17.82,47.24 L16.36,46.74 L15.18,46.14 L14.28,45.48 L13.6,44.8 L13.1,44.12 L12.78,43.46 L12.58,42.86 L12.5,42.36 L12.46,41.96 L12.48,41.7 L12.48,31.02 L12.58,29.74 L12.84,28.66 L13.26,27.74 L13.78,26.98 L14.38,26.34 L15.04,25.86 L15.74,25.46 L16.44,25.18 L17.1,24.98 L17.7,24.86 L18.22,24.78 L18.64,24.74 L18.9,24.72 L30.58,24.72 L31.96,24.62 L33.14,24.34 L34.14,23.92 L34.96,23.36 L35.62,22.72 L36.16,22.02 L36.56,21.3 L36.86,20.58 L37.06,19.88 L37.2,19.24 L37.28,18.68 L37.32,18.26 L37.32,12.14 L41.5,12.14 L41.78,12.16 L42.2,12.22 L42.2,12.22 Z M29.26,40.72 L28.8,41.38 L28.64,42.2 L28.8,43.02 L29.26,43.68 L29.92,44.14 L30.74,44.3 L31.56,44.14 L32.22,43.68 L32.68,43.02 L32.84,42.2 L32.68,41.38 L32.22,40.72 L31.56,40.26 L30.74,40.1 L29.92,40.26 L29.26,40.72 Z" id="Shape"></path>
        </g>
    </g>
</svg>