<?xml version="1.0" encoding="UTF-8"?>
<svg width="48px" height="48px" viewBox="0 0 48 48" version="1.1" xmlns="http://www.w3.org/2000/svg" xmlns:xlink="http://www.w3.org/1999/xlink">
    <!-- Generator: Sketch 63.1 (92452) - https://sketch.com -->
    <title>Logo/Technology/Ruby@1x</title>
    <desc>Created with Sketch.</desc>
    <g id="Logo/Technology/Ruby" stroke="none" stroke-width="1" fill="none" fill-rule="evenodd">
        <g id="ruby" fill="#CC342D" fill-rule="nonzero">
            <path d="M40.312,0.166 C46.378,1.216 48.098,5.362 47.97,9.706 L48,9.644 L45.27,45.42 L9.78,47.852 L9.812,47.852 C6.866,47.728 0.3,47.458 0,38.278 L3.29,32.278 L8.928,45.45 L9.934,47.794 L15.544,29.506 L15.484,29.52 L15.516,29.46 L34.026,35.372 L31.234,24.51 L29.254,16.71 L46.894,15.572 L45.664,14.552 L33,4.228 L40.318,0.146 L40.312,0.166 Z M10.26,10.146 C17.382,3.08 26.574,-1.096 30.104,2.466 C33.628,6.02 29.894,14.676 22.758,21.738 C15.632,28.802 6.552,33.206 3.03,29.652 C-0.502,26.098 3.12,17.218 10.254,10.152 L10.26,10.146 Z" id="Shape"></path>
        </g>
    </g>
</svg>