<?xml version="1.0" encoding="UTF-8"?>
<svg width="48px" height="48px" viewBox="0 0 48 48" version="1.1" xmlns="http://www.w3.org/2000/svg" xmlns:xlink="http://www.w3.org/1999/xlink">
    <!-- Generator: Sketch 63.1 (92452) - https://sketch.com -->
    <title>Logo/Technology/SQL@1x</title>
    <desc>Created with Sketch.</desc>
    <g id="Logo/Technology/SQL" stroke="none" stroke-width="1" fill="none" fill-rule="evenodd">
        <path d="M24,48 C12.5850579,48 3.22523947,44.3104295 3.00400442,39.1858469 L3,39 L3,9 L3.00400442,8.81415315 C3.22523947,3.6895705 12.5850579,0 24,0 L24,0 L24.4116809,0.00160277952 C35.7760738,0.0901808234 45,3.84116601 45,9 L45,9 L45,39 C45,44.2209886 35.5524715,48 24,48 Z M24,28 C15.6315735,28 8.36767858,26.0170307 4.99928877,22.9394167 L4.999,29 L5,29 C5,32.6155674 13.4610815,36 24,36 C34.3983995,36 42.7740018,32.7052172 42.9955026,29.1444919 L43,29 L43.0011974,22.9389725 C39.6330203,26.0168399 32.3688291,28 24,28 Z M4.99880264,12.9389725 L4.999,19 L5,19 C5,22.6155674 13.4610815,26 24,26 C34.3983995,26 42.7740018,22.7052172 42.9955026,19.1444919 L43,19 L43.0011974,12.9389725 C39.6330203,16.0168399 32.3688291,18 24,18 C15.6311709,18 8.36697967,16.0168399 4.99880264,12.9389725 Z M24,2 L23.5795666,2.00179756 C13.2369569,2.09029263 5,5.43264018 5,9 C5,12.6155674 13.4610815,16 24,16 C34.5389185,16 43,12.6155674 43,9 C43,5.38443262 34.5389185,2 24,2 L24,2 Z M24,38 C15.6315735,38 8.36767858,36.0170307 4.99928877,32.9394167 L5,39 L5,39 C5,42.6155674 13.4610815,46 24,46 C34.3983995,46 42.7740018,42.7052172 42.9955026,39.1444919 L43,39 L43.0011974,32.9389725 C39.6330203,36.0168399 32.3688291,38 24,38 Z" id="Combined-Shape" fill="#306693" fill-rule="nonzero"></path>
    </g>
</svg>