<?xml version="1.0" encoding="UTF-8"?>
<svg width="48px" height="48px" viewBox="0 0 48 48" version="1.1" xmlns="http://www.w3.org/2000/svg" xmlns:xlink="http://www.w3.org/1999/xlink">
    <!-- Generator: Sketch 63.1 (92452) - https://sketch.com -->
    <title>Logo/Technology/Symfony@1x</title>
    <desc>Created with Sketch.</desc>
    <g id="Logo/Technology/Symfony" stroke="none" stroke-width="1" fill="none" fill-rule="evenodd">
        <g id="symfony" fill="#000000" fill-rule="nonzero">
            <path d="M48,24 C48,37.256 37.256,48 24,48 C10.744,48 0,37.256 0,24 C0,10.744 10.744,0 24,0 C37.256,0 48,10.744 48,24 Z M34.494,8.878 C32.054,8.962 29.928,10.308 28.344,12.166 C26.588,14.206 25.422,16.624 24.582,19.088 C23.076,17.86 21.918,16.26 19.504,15.566 C17.572,14.972 15.474,15.356 13.878,16.594 C13.058,17.232 12.458,18.108 12.156,19.102 C11.436,21.454 12.918,23.552 13.594,24.302 L15.068,25.882 C15.368,26.19 16.106,27.002 15.746,28.158 C15.36,29.42 13.844,30.232 12.282,29.756 C11.586,29.544 10.586,29.024 10.814,28.296 C10.904,27.996 11.118,27.77 11.234,27.514 C11.338,27.294 11.388,27.126 11.424,27.03 C11.706,26.1 11.318,24.89 10.322,24.584 C9.392,24.298 8.444,24.524 8.072,25.716 C7.654,27.076 8.306,29.542 11.792,30.614 C15.872,31.87 19.322,29.646 19.81,26.75 C20.116,24.936 19.3,23.586 17.798,21.856 L16.574,20.502 C15.832,19.762 15.58,18.498 16.346,17.532 C16.994,16.714 17.916,16.364 19.424,16.774 C21.63,17.374 22.612,18.9 24.248,20.134 C23.572,22.354 23.128,24.58 22.73,26.578 L22.484,28.07 C21.314,34.21 20.418,37.584 18.096,39.522 C17.628,39.854 16.956,40.354 15.95,40.39 C15.418,40.4 15.246,40.038 15.24,39.876 C15.228,39.508 15.54,39.334 15.75,39.17 C16.058,39.004 16.53,38.722 16.494,37.822 C16.462,36.758 15.582,35.834 14.306,35.876 C13.352,35.91 11.9,36.806 11.954,38.448 C12.01,40.148 13.592,41.418 15.978,41.336 C17.254,41.294 20.102,40.774 22.906,37.438 C26.172,33.616 27.086,29.236 27.774,26.026 L28.54,21.794 C28.966,21.842 29.422,21.878 29.92,21.89 C33.984,21.978 36.018,19.87 36.048,18.338 C36.068,17.41 35.44,16.496 34.56,16.518 C33.788,16.536 33.124,17.074 32.948,17.826 C32.76,18.682 34.24,19.452 33.084,20.204 C32.264,20.736 30.792,21.108 28.716,20.804 L29.092,18.72 C29.864,14.768 30.81,9.906 34.414,9.786 C34.678,9.772 35.638,9.798 35.66,10.432 C35.666,10.642 35.616,10.7 35.366,11.182 C35.136,11.492 35.018,11.872 35.03,12.256 C35.064,13.264 35.83,13.928 36.944,13.888 C38.43,13.842 38.854,12.392 38.834,11.65 C38.77,9.902 36.93,8.802 34.494,8.878 Z" id="Shape"></path>
        </g>
    </g>
</svg>