<?xml version="1.0" encoding="UTF-8"?>
<svg width="48px" height="48px" viewBox="0 0 48 48" version="1.1" xmlns="http://www.w3.org/2000/svg" xmlns:xlink="http://www.w3.org/1999/xlink">
    <!-- Generator: Sketch 63.1 (92452) - https://sketch.com -->
    <title>Logo/Social/Github@1x</title>
    <desc>Created with Sketch.</desc>
    <g id="Logo/Social/Github" stroke="none" stroke-width="1" fill="none" fill-rule="evenodd">
        <path d="M19.2405699,43.6726163 L19.240136,43.5085711 C19.2367586,42.6944196 19.2148055,40.0619782 19.2148055,38.3961167 C19.2148055,38.3961167 13.1991949,39.6851762 11.9358999,35.8352021 L11.9199977,35.7958072 C11.7884106,35.4748949 10.8518647,33.2866335 9.54685984,32.6898468 C9.54685984,32.6898468 7.57886221,31.3406145 9.68432594,31.3664628 C9.68432594,31.3664628 11.8241982,31.5383374 13.0015559,33.5836282 C14.8835323,36.9007742 18.0374478,35.9469038 19.2663343,35.3796673 C19.4640573,34.0046706 20.0226497,33.0508002 20.6413311,32.4836476 C15.8374866,31.9508196 10.9905896,31.2546772 10.9905896,22.9875765 C10.9905896,20.6243009 11.6437634,19.4382991 13.0187601,17.9258363 C12.7952728,17.3672438 12.0648058,15.0641411 13.2421635,12.0906604 C15.0382866,11.5320679 19.1718369,14.4109673 19.1718369,14.4109673 C20.8905828,13.929752 22.7382346,13.6805003 24.5686822,13.6805003 C26.3991298,13.6805003 28.2467817,13.929752 29.9655276,14.4109673 C29.9655276,14.4109673 34.0991618,11.5235078 35.8952009,12.0906604 C37.0725587,15.0727013 36.3420917,17.3672438 36.1186883,17.9258363 C37.493685,19.4469432 38.3358537,20.6328611 38.3358537,22.9875765 C38.3358537,31.2805255 33.2741134,31.9421755 28.470269,32.4836476 C29.2609089,33.1625019 29.931203,34.4515613 29.931203,36.4710878 C29.931203,39.3671914 29.9054386,42.9507934 29.9054386,43.655496 C29.9054386,44.2140884 30.3007166,44.8929427 31.392137,44.6953037 C39.9858666,41.8421687 45.8123984,33.6867698 45.8123984,24.1562902 C45.8123984,12.2367705 36.1444527,3.18759015 24.2249331,3.18759015 C12.3054134,3.18759015 3.1875,12.2367705 3.1875,24.1562902 C3.1875,33.6867698 9.18590641,41.8421687 17.7538715,44.7125079 C18.8538521,44.9101469 19.2405699,44.2312087 19.2405699,43.6726163 Z M11.1796684,32.4062705 C11.2398413,32.2945688 11.153904,32.1570188 10.9820295,32.0710815 C10.8101549,32.0195527 10.6726048,32.0453171 10.6125159,32.1312544 C10.552343,32.2429561 10.6382803,32.3805061 10.8101549,32.4664434 C10.947621,32.5523807 11.1194956,32.5266163 11.1796684,32.4062705 Z M12.0476016,33.3601409 C12.1593872,33.2742036 12.1335389,33.0765646 11.9875126,32.9133341 C11.8499626,32.7757841 11.6523236,32.7156112 11.5406219,32.8273968 C11.4289202,32.9133341 11.4546846,33.1109731 11.6007948,33.2742036 C11.7382609,33.4117536 11.9358999,33.4719265 12.0476016,33.3601409 Z M12.8984143,34.63208 C13.0358805,34.5202944 13.0358805,34.296891 12.8984143,34.099252 C12.7780686,33.901613 12.5546652,33.8156757 12.4171991,33.9273774 C12.279649,34.0133147 12.279649,34.2367181 12.4171991,34.4343571 C12.5546652,34.63208 12.7867126,34.7180173 12.8984143,34.63208 Z M14.067128,35.8093538 C14.1789136,35.6976521 14.1273009,35.4398402 13.9554263,35.2766097 C13.7663475,35.0788868 13.5085356,35.0531224 13.3968339,35.1906724 C13.2593678,35.3023741 13.3108966,35.560186 13.5085356,35.7234165 C13.7062585,35.9211394 13.9554263,35.9469038 14.067128,35.8093538 Z M15.6741722,36.5140564 C15.7257849,36.3421818 15.5624705,36.1445428 15.3046586,36.0671657 C15.0812552,36.0070767 14.8320035,36.093014 14.7718306,36.2648886 C14.7116577,36.4367632 14.8835323,36.6344022 15.1413442,36.685931 C15.3648315,36.7718683 15.6226434,36.685931 15.6741722,36.5140564 Z M18.6819775,36.7633081 C18.9312292,36.7031352 19.1031038,36.5398208 19.0773394,36.3679462 C19.0514911,36.2047157 18.8195275,36.093014 18.5702758,36.1187784 C18.3210241,36.1789513 18.1491495,36.3421818 18.1749978,36.5398208 C18.2007622,36.7116954 18.4241656,36.823481 18.6819775,36.7633081 Z M16.9976401,36.9609471 C17.2468079,36.9609471 17.4445308,36.823481 17.4445308,36.6516064 C17.4445308,36.4538835 17.2210435,36.3164174 16.9632316,36.3421818 C16.7140638,36.3421818 16.5163409,36.4797318 16.5163409,36.6516064 C16.5163409,36.8492454 16.7140638,36.9867115 16.9976401,36.9609471 Z" id="" fill="#00191F" fill-rule="nonzero"></path>
    </g>
</svg>