<?xml version="1.0" encoding="UTF-8"?>
<svg width="48px" height="48px" viewBox="0 0 48 48" version="1.1" xmlns="http://www.w3.org/2000/svg" xmlns:xlink="http://www.w3.org/1999/xlink">
    <!-- Generator: Sketch 63.1 (92452) - https://sketch.com -->
    <title>Logo/Social/Instagram@1x</title>
    <desc>Created with Sketch.</desc>
    <g id="Logo/Social/Instagram" stroke="none" stroke-width="1" fill="none" fill-rule="evenodd">
        <path d="M32.4491539,43.6125273 C35.5343364,43.4664172 38.2671256,42.7617145 40.5186995,40.5015805 C42.7701895,38.2500066 43.4748921,35.5172174 43.6295624,32.4320349 C43.8100811,29.252355 43.8100811,19.7305195 43.6295624,16.5508395 C43.4835362,13.4656571 42.7788336,10.7328679 40.5186995,8.48129396 C38.2671256,6.22980397 35.5343364,5.52510136 32.4491539,5.37043102 C29.269474,5.18991234 19.7389944,5.18991234 16.5593145,5.37043102 C13.4827761,5.51645728 10.7499869,6.22115988 8.48985281,8.4727338 C6.22971873,10.7243077 5.53357629,13.4570969 5.37890594,16.5422794 C5.19847119,19.7219593 5.19847119,29.252355 5.37890594,32.4320349 C5.52501613,35.5172174 6.22971873,38.2500066 8.48985281,40.5015805 C10.7499869,42.7531544 13.4742159,43.4577731 16.5593145,43.6125273 C19.7389944,43.7929621 29.269474,43.7929621 32.4491539,43.6125273 Z M24.809526,40.2788607 L24.5085143,40.2780932 C21.706992,40.2780932 15.6828212,40.5015805 13.1562312,39.5046575 C11.4718937,38.8343634 10.1741902,37.5367438 9.49533595,35.8437623 C8.52452464,33.3960311 8.70736852,27.7037327 8.72113279,24.7924826 L8.72190029,24.4914792 C8.72190029,21.689873 8.49841297,15.6657022 9.49533595,13.1391121 C10.1656301,11.4547747 11.4632497,10.1570712 13.1562312,9.47821694 C15.6039624,8.50740563 21.2962608,8.69024951 24.2075109,8.70401378 L24.5085143,8.70478128 C27.3101204,8.70478128 33.3342913,8.48129396 35.8608813,9.47821694 C37.5452187,10.1485111 38.8429222,11.4461306 39.5217765,13.1391121 C40.4925878,15.5868434 40.3097439,21.2791418 40.2959797,24.1904674 L40.2952122,24.4914792 C40.2952122,27.2930014 40.5272596,33.3171722 39.5217765,35.8437623 C38.8514824,37.5280997 37.5538628,38.8258032 35.8608813,39.5046575 C33.4131501,40.4754688 27.7208517,40.2926249 24.809526,40.2788607 Z M34.7866651,16.5164311 C36.0585203,16.5164311 37.0897678,15.4938276 37.0897678,14.2133283 C37.0897678,12.9414731 36.0585203,11.9102256 34.7866651,11.9102256 C33.5148099,11.9102256 32.4835624,12.9414731 32.4835624,14.2133283 C32.4835624,15.4851835 33.5061658,16.5164311 34.7866651,16.5164311 Z M24.5085143,34.365624 C29.9741766,34.365624 34.382743,29.9570576 34.382743,24.4914792 C34.382743,19.0258169 29.9741766,14.6172504 24.5085143,14.6172504 C19.0429359,14.6172504 14.6343694,19.0258169 14.6343694,24.4914792 C14.6343694,29.9570576 19.0429359,34.365624 24.5085143,34.365624 Z M24.5085143,30.910928 C20.976525,30.910928 18.0890655,28.0320286 18.0890655,24.4914792 C18.0890655,20.9508458 20.9679648,18.0719464 24.5085143,18.0719464 C28.0491476,18.0719464 30.928047,20.9508458 30.928047,24.4914792 C30.928047,28.0320286 28.0405874,30.910928 24.5085143,30.910928 Z" id="" fill="#00191F" fill-rule="nonzero"></path>
    </g>
</svg>