<?xml version="1.0" encoding="UTF-8"?>
<svg width="48px" height="48px" viewBox="0 0 48 48" version="1.1" xmlns="http://www.w3.org/2000/svg" xmlns:xlink="http://www.w3.org/1999/xlink">
    <!-- Generator: Sketch 63.1 (92452) - https://sketch.com -->
    <title>Logo/Social/LinkedIn@1x</title>
    <desc>Created with Sketch.</desc>
    <g id="Logo/Social/LinkedIn" stroke="none" stroke-width="1" fill="none" fill-rule="evenodd">
        <path d="M9.87257046,11.7898798 C12.4240857,11.7898798 14.4951409,9.67585593 14.4951409,7.12350148 C14.4951409,4.57190234 12.4242535,2.50093102 9.87257046,2.50093102 C7.3208874,2.50093102 5.25,4.57190234 5.25,7.12350148 C5.25,9.67585593 7.32021601,11.7898798 9.87257046,11.7898798 Z M26.8409062,41 L26.8409062,28.2727202 C26.8409062,24.9211657 27.4767918,21.6813128 31.6267071,21.6813128 C35.5560675,21.6813128 35.7657061,25.2114656 35.7761055,28.133131 L35.7766225,41 L43.7499082,41 L43.7499082,26.8805192 C43.7499082,19.9711271 42.2648883,14.6516589 34.1867825,14.6516589 C30.3033231,14.6516589 27.7002791,16.782887 26.6346231,18.8024135 L26.5229214,18.8024135 L26.5229214,15.2961886 L18.8676204,15.2961886 L18.8676204,41 L26.8409062,41 Z M13.8678155,41 L13.8678155,15.2961886 L5.88596955,15.2961886 L5.88596955,41 L13.8678155,41 Z" id="" fill="#00191F" fill-rule="nonzero"></path>
    </g>
</svg>