<?xml version="1.0" encoding="UTF-8"?>
<svg width="48px" height="48px" viewBox="0 0 48 48" version="1.1" xmlns="http://www.w3.org/2000/svg" xmlns:xlink="http://www.w3.org/1999/xlink">
    <!-- Generator: Sketch 63.1 (92452) - https://sketch.com -->
    <title>Logo/Social/Twiiter@1x</title>
    <desc>Created with Sketch.</desc>
    <g id="Logo/Social/Twiiter" stroke="none" stroke-width="1" fill="none" fill-rule="evenodd">
        <path d="M15.8476538,42.3680311 C32.4314536,42.3680311 41.5049717,28.6319951 41.5049717,16.710797 C41.5049717,16.319967 41.5049717,15.9289691 41.4770253,15.538139 C43.2358865,14.2538632 44.7715121,12.6625126 45.9997272,10.875789 C44.3805142,11.5736938 42.621653,12.0763095 40.8068991,12.2716826 C42.677378,11.1550013 44.101218,9.39614011 44.7713443,7.30217385 C43.0402616,8.33518378 41.0860274,9.08898142 39.0480379,9.47981148 C37.4007106,7.72095032 35.0556463,6.6321315 32.4591483,6.6321315 C27.4617771,6.6321315 23.4414391,10.680332 23.4414391,15.6498407 C23.4414391,16.3478295 23.5251943,17.0457343 23.6647585,17.7157766 C16.1826749,17.3248627 9.51003001,13.7513314 5.07099945,8.27929096 C4.28917148,9.61937566 3.84261646,11.1549173 3.84261646,12.8300232 C3.84261646,15.9569155 5.43388311,18.7208402 7.86278662,20.3401371 C6.38322167,20.2844122 4.98716024,19.8656357 3.78672365,19.1955934 L3.78672365,19.3072111 C3.78672365,23.6904328 6.88575343,27.3197729 11.0177092,28.1574098 C10.2639955,28.3527828 9.45430504,28.4644845 8.64469851,28.4644845 C8.05832754,28.4644845 7.49998689,28.4086757 6.94156232,28.3249204 C8.08627394,31.8985355 11.4086232,34.4949496 15.3730684,34.5787888 C12.2740386,37.0076923 8.39326479,38.4315323 4.17763763,38.4315323 C3.42383999,38.4315323 2.72593516,38.4035859 2,38.3199145 C5.9923916,40.8882983 10.7384969,42.3680311 15.8476538,42.3680311 Z" id="" fill="#00191F" fill-rule="nonzero"></path>
    </g>
</svg>